<?xml version='1.0' encoding='utf-8'?>
<svg xmlns="http://www.w3.org/2000/svg" fill="none" viewBox="0 0 2200.7 2746.4"> <path id="a" d="m194.08 1784.4c28.62-260.56 149.75-421.16 371.48-466.74 122.31 162.63-31.18 453.04-285.76 701.7 132.87-4.41 271-39.3 412.76-95.26-74.66 188.11-191.59 362.22-346.08 523.89 192.83-42.29 380.83-108.76 561.99-209.56-2.93 166.94-75.43 336.78-180.98 508.02 343.83-154.82 602.23-355.57 796.94-590.57 4.17 117.86-9.41 226.46-34.92 333.38 446.35-371.11 535.34-677 546.11-952.52 40.21 70.97 62.1 152.13 82.55 225.43 136.39-456.56 68.45-814.71-206.38-1073.2 98.06 16.83 194.05 63.87 288.93 127-177.31-302.26-425.2-529.08-860.44-555.64 33.78-79.97 48.23-167.29 47.63-260.35-188.82 193.59-431.02 238.13-593.75 269.88-332.61 57.96-489.76 243.44-660.41 419.11-39.89 50.76-25.87 110.15 0 171.45-212.67 366.75-156.27 665.58 60.33 923.95z" fill="#C91B1B"/> <path d="m565.56 1317.6c122.31 162.63-31.18 453.04-285.76 701.7 132.87-4.41 271-39.3 412.76-95.26-74.66 188.11-191.59 362.22-346.08 523.89 192.83-42.29 380.83-108.76 561.99-209.56-2.93 166.94-75.43 336.78-180.98 508.02 343.83-154.82 602.23-355.57 796.94-590.57 4.17 117.86-9.41 226.46-34.92 333.38 446.35-371.11 535.34-677 546.11-952.52 40.21 70.97 62.1 152.13 82.55 225.43 136.39-456.56 68.45-814.71-206.38-1073.2 98.06 16.83 194.05 63.87 288.93 127-177.31-302.26-425.2-529.08-860.44-555.64 33.78-79.97 48.23-167.29 47.63-260.35-188.82 193.59-431.02 238.13-593.75 269.88-332.61 57.96-489.76 243.44-660.41 419.11-39.89 50.76-25.87 110.15 0 171.45-212.67 366.75-156.27 665.58 60.33 923.95 28.62-260.56 149.75-421.16 371.48-466.74z" stroke="#000" stroke-opacity="0" stroke-width="1.3333"/> <path id="b" d="m161.53 1659.8c66.68-203.44 189.19-365.95 421.49-399.27 205.67 192.89 29.35 441.79-180.98 692.17 143.27-27.14 276.95-68.38 392.92-135.74-13.9 146.3-155.89 341.17-316.72 542.94 189.76-68.31 365.75-139.09 490.55-219.08-1.37 176.74-46.99 338.72-122.24 495.31 368.49-201.99 582.87-414.21 710.43-633.42 33.37 111.02 38.83 234.85 8.73 359.57 356.6-336.26 466.7-675.9 398.47-1009.7 70.63 46.1 112.76 127.13 142.88 223.84 80.43-445.85-62.54-749.66-364.34-952.52 88.91-8.86 200.59 17.1 313.54 61.91-270.94-323.99-540.85-402.25-804.09-359.58 57.72-87.28 69.84-147.28 73.82-202.41-99.59 77.45-225.63 165.11-385.77 179.4-227.02 1.58-478.98 97.32-747.73 399.26-32.25 27.11-29.73 92.89-7.15 180.98-169.14 231.36-178.4 489.91-23.81 776.31z" fill="#000"/> <path d="m583.02 1260.5c205.67 192.89 29.35 441.79-180.98 692.17 143.27-27.14 276.95-68.38 392.92-135.74-13.9 146.3-155.89 341.17-316.72 542.94 189.76-68.31 365.75-139.09 490.55-219.08-1.37 176.74-46.99 338.72-122.24 495.31 368.49-201.99 582.87-414.21 710.43-633.42 33.37 111.02 38.83 234.85 8.73 359.57 356.6-336.26 466.7-675.9 398.47-1009.7 70.63 46.1 112.76 127.13 142.88 223.84 80.43-445.85-62.54-749.66-364.34-952.52 88.91-8.86 200.59 17.1 313.54 61.91-270.94-323.99-540.85-402.25-804.09-359.58 57.72-87.28 69.84-147.28 73.82-202.41-99.59 77.45-225.63 165.11-385.77 179.4-227.02 1.58-478.98 97.32-747.73 399.26-32.25 27.11-29.73 92.89-7.15 180.98-169.14 231.36-178.4 489.91-23.81 776.31 66.68-203.44 189.19-365.95 421.49-399.27z" stroke="#000" stroke-opacity="0" stroke-width="1.3333"/> <path id="c" d="m154.39 1451c43.21-110.39 105.44-182.05 200.56-221.2 51.85-19.05 103.66-10.9 151.02-18.87 164.19-27.58 286.6-73.95 305.66-125.07-89.33 20.9-178.98 18.04-269.09-19.06-100.66-45.23-193.77-24.34-278.61 69.07-25.7 34.55-62.85 79.99-80.44 133.09-17.79 53.7-15.95 115.24-29.1 182.04z" fill="#161616"/> <path d="m354.95 1229.8c51.85-19.05 103.66-10.9 151.02-18.87 164.19-27.58 286.6-73.95 305.66-125.07-89.33 20.9-178.98 18.04-269.09-19.06-100.66-45.23-193.77-24.34-278.61 69.07-25.7 34.55-62.85 79.99-80.44 133.09-17.79 53.7-15.95 115.24-29.1 182.04 43.21-110.39 105.44-182.05 200.56-221.2z" stroke="#000" stroke-opacity="0" stroke-width="1.3333"/> <path id="d" d="m286.15 914.42c-179.39 128.59-162.97 365.3-131.76 536.59 46.62-179.34 90.84-344.66 155.58-449.27-8.47-31.07-16.39-60.09-23.82-87.32z" fill="#2B2B2B"/> <path d="m154.39 1451c46.62-179.34 90.84-344.66 155.58-449.27-8.47-31.07-16.39-60.09-23.82-87.32-179.39 128.59-162.97 365.3-131.76 536.59z" stroke="#000" stroke-opacity="0" stroke-width="1.3333"/> <path id="e" d="m403.63 984.27c55.21-82.47 122.7-151.07 204.79-203.21 15.84 46.33 12.77 86.58-9.52 120.66-39.69 52.38-109.54 25.4-195.27 82.55z" fill="#C91B1B"/> <path d="m608.42 781.06c15.84 46.33 12.77 86.58-9.52 120.66-39.69 52.38-109.54 25.4-195.27 82.55 55.21-82.47 122.7-151.07 204.79-203.21z" stroke="#000" stroke-opacity="0" stroke-width="1.3333"/> <path id="f" d="m252.81 722.32c-13.7 40.1-9.61 77.44 7.94 112.72 23.94-5.19 43.22-15.46 58.74-30.16 19.24 33.9 30.29 73.16 47.63 98.42 92.56-131.09 264.26-222.48 425.46-279.4-35.66 29.77-66.42 60.99-98.43 88.9 65.25 104.04 28 210.42-31.75 273.06 120.85 64.17 230.58 45.98 336.56 0-60.6 164.46-116.12 236.92-198.45 261.94 208.32 272.19 135.65 556.72-14.28 836.63 45.32-3.65 167.75-85.19 230.19-153.99 10.59-24.34-34.93-0.53-27.52-29.63-31.35-7.15-22.04 21.62-66.14 69.21 72.66-191.25 187.42-331.97-1.59-680.95 255.26-76.89 250.76-267.51 180.98-452.97-91.6-21.28-167.1-3.62-283.64 81.49 76.1-103.13 122.11-156.05 16.93-223.31 96.16-17.47 94.57-65.69 96.84-125.95-145.44-25.95-297.81-36.27-521.24 172.52-1.42-26.2-24.88-9.96-51.86-1.06-30.3 4.08-47.28-4.86-62.71 17.46-8.81-22.05-19.9-20.55-43.66-34.93z" fill="#474747"/> <path d="m260.75 835.04c23.94-5.19 43.22-15.46 58.74-30.16 19.24 33.9 30.29 73.16 47.63 98.42 92.56-131.09 264.26-222.48 425.46-279.4-35.66 29.77-66.42 60.99-98.43 88.9 65.25 104.04 28 210.42-31.75 273.06 120.85 64.17 230.58 45.98 336.56 0-60.6 164.46-116.12 236.92-198.45 261.94 208.32 272.19 135.65 556.72-14.28 836.63 45.32-3.65 167.75-85.19 230.19-153.99 10.59-24.34-34.93-0.53-27.52-29.63-31.35-7.15-22.04 21.62-66.14 69.21 72.66-191.25 187.42-331.97-1.59-680.95 255.26-76.89 250.76-267.51 180.98-452.97-91.6-21.28-167.1-3.62-283.64 81.49 76.1-103.13 122.11-156.05 16.93-223.31 96.16-17.47 94.57-65.69 96.84-125.95-145.44-25.95-297.81-36.27-521.24 172.52-1.42-26.2-24.88-9.96-51.86-1.06-30.3 4.08-47.28-4.86-62.71 17.46-8.81-22.05-19.9-20.55-43.66-34.93-13.7 40.1-9.61 77.44 7.94 112.72z" stroke="#000" stroke-opacity="0" stroke-width="1.3333"/> <path id="g" d="m755 1354.7c41.76 155.15 10.04 307.51-127 444.51 75.06-25.13 159.81-57.15 191.56-97.37 59.27-133.36 32.13-250.07-64.56-347.14z" fill="#474747"/> <path d="m628 1799.2c75.06-25.13 159.81-57.15 191.56-97.37 59.27-133.36 32.13-250.07-64.56-347.14 41.76 155.15 10.04 307.51-127 444.51z" stroke="#000" stroke-opacity="0" stroke-width="1.3333"/> <path id="h" d="m1028.1 1479.6c88.4 135.47 133.65 429.73 76.21 728.15 180-143.63 339.74-295.23 386.83-463.03-127.5 22.86-228.48 83.92-279.94 213.26 33.47-182.83-49.14-392.85-183.1-478.38z" fill="#474747"/> <path d="m1104.3 2207.7c180-143.63 339.74-295.23 386.83-463.03-127.5 22.86-228.48 83.92-279.94 213.26 33.47-182.83-49.14-392.85-183.1-478.38 88.4 135.47 133.65 429.73 76.21 728.15z" stroke="#000" stroke-opacity="0" stroke-width="1.3333"/> <path id="i" d="m1457.8 1463.7c96.31 95.17 175.2 241.39 220.66 392.12 115.9-131.39 178.45-409.41 109.54-796.94l-133.35 420.69-196.85-15.87z" fill="#474747"/> <path d="m1678.4 1855.8c115.9-131.39 178.45-409.41 109.54-796.94l-133.35 420.69-196.85-15.87c96.31 95.17 175.2 241.39 220.66 392.12z" stroke="#000" stroke-opacity="0" stroke-width="1.3333"/> <path id="j" d="m252.82 722.32c4.41 22.87 13.89 39.12 23.81 58.74 22.77-18.64 44.76-31.39 65.09-31.75 3.72 28.43 16.93 54.05 36.51 77.79 101.83-157.35 367.26-268.22 554.05-258.77-85.1 60.1-127.8 103.16-128.59 129.39 28.93 147.86 0.45 252.85-42.86 262.73 161.57 11.93 253.54-39.02 323.85-109.53 7.58 206.75-61.17 339.61-176.21 431.81 86.94 194.07 119.06 427.19 4.76 685.81 35.7-8.62 75.54-14.89 103.19-38.1 22.23-22.22 42.22-251.74 0-455.62 104.19 133.86 163.01 314.63 169.87 542.94 120.73-63.8 226.59-148.76 304.81-273.06 11.75-98.21 2.57-192.25-33.34-280.99 108.98 71.24 186.58 157.71 239.72 255.59 109.32-224.43 113.93-443.18 90.49-660.41 94.63 42.39 166.12 129.63 222.25 204.79-31.59-274.76-162.55-516.62-484.2-695.35l252.42-14.28c-187.68-122.65-396.61-196.97-681.54-98.43 61.17-70.33 77.67-112.84 76.69-144.47-97.27 74.03-237.39 101.79-406.41 106.37-86.52 5.55-308.37 114.23-514.36 304.8z" fill="#282828"/> <path d="m276.63 781.06c22.77-18.64 44.76-31.39 65.09-31.75 3.72 28.43 16.93 54.05 36.51 77.79 101.83-157.35 367.26-268.22 554.05-258.77-85.1 60.1-127.8 103.16-128.59 129.39 28.93 147.86 0.45 252.85-42.86 262.73 161.57 11.93 253.54-39.02 323.85-109.53 7.58 206.75-61.17 339.61-176.21 431.81 86.94 194.07 119.06 427.19 4.76 685.81 35.7-8.62 75.54-14.89 103.19-38.1 22.23-22.22 42.22-251.74 0-455.62 104.19 133.86 163.01 314.63 169.87 542.94 120.73-63.8 226.59-148.76 304.81-273.06 11.75-98.21 2.57-192.25-33.34-280.99 108.98 71.24 186.58 157.71 239.72 255.59 109.32-224.43 113.93-443.18 90.49-660.41 94.63 42.39 166.12 129.63 222.25 204.79-31.59-274.76-162.55-516.62-484.2-695.35l252.42-14.28c-187.68-122.65-396.61-196.97-681.54-98.43 61.17-70.33 77.67-112.84 76.69-144.47-97.27 74.03-237.39 101.79-406.41 106.37-86.52 5.55-308.37 114.23-514.36 304.8 4.41 22.87 13.89 39.12 23.81 58.74z" stroke="#000" stroke-opacity="0" stroke-width="1.3333"/> </svg>