<svg width="110" height="13" viewBox="0 0 110 13" fill="none" xmlns="http://www.w3.org/2000/svg">
<path d="M101.099 7.38334V10.2195H110V12.1995H98.7267V0.658571H109.982V2.63854H101.099V5.51039H108.377V7.38334H101.099Z" fill="white"/>
<path d="M94.3512 9.84492L93.602 10.1482V0.658571H95.9744V12.1995H93.602L84.2729 3.08448L85.0221 2.78124V12.1995H82.6497V0.658571H85.0221L94.3512 9.84492Z" fill="white"/>
<path d="M73.0391 12.4304C71.5052 12.4304 70.1913 12.1926 69.0973 11.717C68.0153 11.2295 67.1829 10.5398 66.6003 9.64799C66.0295 8.75618 65.7441 7.68601 65.7441 6.43748C65.7441 5.17706 66.0295 4.10095 66.6003 3.20914C67.1829 2.31733 68.0153 1.63361 69.0973 1.15798C70.1913 0.670463 71.5052 0.426702 73.0391 0.426702C74.5849 0.426702 75.8988 0.670463 76.9809 1.15798C78.063 1.63361 78.8894 2.31733 79.4601 3.20914C80.0428 4.10095 80.3341 5.17706 80.3341 6.43748C80.3341 7.68601 80.0428 8.75618 79.4601 9.64799C78.8894 10.5398 78.063 11.2295 76.9809 11.717C75.8988 12.1926 74.5849 12.4304 73.0391 12.4304ZM73.0391 10.3793C73.9904 10.3793 74.8227 10.2366 75.5362 9.9512C76.2615 9.66582 76.8263 9.23181 77.2306 8.64916C77.6468 8.06651 77.8549 7.32929 77.8549 6.43748C77.8549 5.54567 77.6468 4.80845 77.2306 4.2258C76.8263 3.64315 76.2615 3.20914 75.5362 2.92376C74.8227 2.62649 73.9904 2.47786 73.0391 2.47786C72.0998 2.47786 71.2615 2.62649 70.5242 2.92376C69.787 3.20914 69.2103 3.64315 68.7941 4.2258C68.3779 4.80845 68.1699 5.54567 68.1699 6.43748C68.1699 7.32929 68.3779 8.06651 68.7941 8.64916C69.2103 9.23181 69.787 9.66582 70.5242 9.9512C71.2615 10.2366 72.0998 10.3793 73.0391 10.3793Z" fill="white"/>
<path d="M51.6222 0.658571H64.0194V2.63854L53.7271 10.8795L53.513 10.2195H64.0194V12.1995H51.6222V10.2195L61.9145 1.97855L62.1286 2.63854H51.6222V0.658571Z" fill="white"/>
<path d="M50.1565 0.658571L45.0906 8.56062V12.1995H42.7004V8.56062L37.6345 0.658571H40.3815L44.6447 7.56171H43.2177L47.4095 0.658571H50.1565Z" fill="white"/>
<path d="M28.069 9.68438V7.70441H35.7035V9.68438H28.069ZM25.1972 12.1995L30.6198 0.658571H33.1884L38.6645 12.1995H36.0781L31.3333 1.80018H32.4749L27.7658 12.1995H25.1972Z" fill="white"/>
<path d="M16.3948 0.658571V10.2195H24.065V12.1995H14.0224V0.658571H16.3948Z" fill="white"/>
<path d="M2.087 8.45359V6.56281H7.36692C7.99718 6.56281 8.49663 6.39632 8.86528 6.06336C9.23392 5.7185 9.41824 5.24283 9.41824 4.63635C9.41824 4.00609 9.23392 3.52447 8.86528 3.19151C8.49663 2.85854 7.99718 2.69205 7.36692 2.69205H2.3724V12.1995H0V0.658571H7.15287C7.79502 0.658571 8.39555 0.735867 8.95446 0.89046C9.52526 1.04505 10.0188 1.28289 10.435 1.60396C10.8631 1.92504 11.1961 2.3353 11.4339 2.83475C11.6717 3.33421 11.7906 3.93474 11.7906 4.63635C11.7906 5.32607 11.6717 5.91471 11.4339 6.40227C11.1961 6.88983 10.8631 7.2882 10.435 7.59739C10.0188 7.89468 9.52526 8.11468 8.95446 8.25738C8.39555 8.38819 7.79502 8.45359 7.15287 8.45359H2.087Z" fill="white"/>
</svg>
