<?xml version='1.0' encoding='utf-8'?>
<svg xmlns="http://www.w3.org/2000/svg" fill="none" viewBox="0 0 3192.8 2654.6"> <path id="a" d="m0.58 1689.4c-10.17 77.98 113.58 281.4 316.99 389.89 121.55 59.99 285.99 76.88 435.66 50.85 105.1-10.17 257.45-90.4 552.63-298.35 61.03-35.6 122.24-26.12 186.68-0.2 76.08 39.19 129.92 132.95 121.85 251.08-13.57 147.49-105.3 261.48-274.62 379.73 131.4 109.33 276.7 164.58 430.57 186.46 142.88 17.75 285.19-6.66 427.19-54.24 279.7-103.42 381.45-275.01 454.3-467.87 106.8 128.83 147.06 277.42 166.13 389.89 379.65-492.67 433.1-969.61 326.67-1335.8-53.37-170.34-164.63-309.49-350.61-450.87-132.14-100.44-286.58-204.49-497.05-331.4 54.96-81.18 126.27-158.4 253.27-200.91-188.13-88.13-402.01-113-637.5-84.79 22.29-43.92 51.28-81.5 91.53-111.88-261.27-8.34-530.05 36.5-813.68 186.47-123.06 63.89-251.43 149.55-383.11 281.4-100.19 101.58-197.84 238.73-291.57 430.57-77.94 182.64-124.43 295.92-115.27 294.97 30.45 12.52 54.24 27.12 66.11 52.55-157.15 163.05-302.15 315.06-466.17 442.44z" fill="#000"/> <path d="m317.57 2079.2c121.55 59.99 285.99 76.88 435.66 50.85 105.1-10.17 257.45-90.4 552.63-298.35 61.03-35.6 122.24-26.12 186.68-0.2 76.08 39.19 129.92 132.95 121.85 251.08-13.57 147.49-105.3 261.48-274.62 379.73 131.4 109.33 276.7 164.58 430.57 186.46 142.88 17.75 285.19-6.66 427.19-54.24 279.7-103.42 381.45-275.01 454.3-467.87 106.8 128.83 147.06 277.42 166.13 389.89 379.65-492.67 433.1-969.61 326.67-1335.8-53.37-170.34-164.63-309.49-350.61-450.87-132.14-100.44-286.58-204.49-497.05-331.4 54.96-81.18 126.27-158.4 253.27-200.91-188.13-88.13-402.01-113-637.5-84.79 22.29-43.92 51.28-81.5 91.53-111.88-261.27-8.34-530.05 36.5-813.68 186.47-123.06 63.89-251.43 149.55-383.11 281.4-100.19 101.58-197.84 238.73-291.57 430.57-77.94 182.64-124.43 295.92-115.27 294.97 30.45 12.52 54.24 27.12 66.11 52.55-157.15 163.05-302.15 315.06-466.17 442.44-10.17 77.98 113.58 281.4 316.99 389.89z" stroke="#000" stroke-opacity="0" stroke-width="1.3333"/> <path id="b" d="m556.59 1957.2c70.35 21.18 182.98 9.3 242.41-17.8 150.87-73.74 283.94-218.68 478.05-297.51 134.87-38.77 329.71-16.95 404.3 58.49 189.2 203.97 215.49 442.23 15.25 699.25 279.42 19.77 463.63-123.75 513.64-302.58 39.27-168.11-0.28-324.06-116.97-485.67 161.03 55.21 266.37 181.88 334.8 345.82-37-400.9-190.04-739.55-882.78-756.84l141.99 273.71-420.4 16.95c-135.01 94.24-262.96 259.26-405.15 339.04-104.36 58.55-196.68 76.83-305.14 127.14z" fill="#C4C4C4"/> <path d="m799 1939.4c150.87-73.74 283.94-218.68 478.05-297.51 134.87-38.77 329.71-16.95 404.3 58.49 189.2 203.97 215.49 442.23 15.25 699.25 279.42 19.77 463.63-123.75 513.64-302.58 39.27-168.11-0.28-324.06-116.97-485.67 161.03 55.21 266.37 181.88 334.8 345.82-37-400.9-190.04-739.55-882.78-756.84l141.99 273.71-420.4 16.95c-135.01 94.24-262.96 259.26-405.15 339.04-104.36 58.55-196.68 76.83-305.14 127.14 70.35 21.18 182.98 9.3 242.41-17.8z" stroke="#000" stroke-opacity="0" stroke-width="1.3333"/> <path id="c" d="m1171.5 1470.9c-48.74 19.57-88.3 44.43-134.63 95.29-63.29 76.84-189.87 220.37-293.84 292.69-45.26 36.41-106.2 69.12-186.47 98.33 55.64 9.39 160.48 13.56 318.7-118.67 207.64-168.44 365.9-289.01 545.85-322.08 122.26-16.6 241.78-20.06 342.42 33.9-28.45-115.76-90.76-221.94-186.47-318.69 485.47-11.01 778.84 222.1 850.98 725.54 6.14-350.15-145.79-895.06-623.82-973.04-239.11-42.72-692.83 185.41-908.62 545.85 98.26-35.81 190.99-57.48 275.9-59.12z" fill="#fff"/> <path d="m1036.9 1566.2c-63.29 76.84-189.87 220.37-293.84 292.69-45.26 36.41-106.2 69.12-186.47 98.33 55.64 9.39 160.48 13.56 318.7-118.67 207.64-168.44 365.9-289.01 545.85-322.08 122.26-16.6 241.78-20.06 342.42 33.9-28.45-115.76-90.76-221.94-186.47-318.69 485.47-11.01 778.84 222.1 850.98 725.54 6.14-350.15-145.79-895.06-623.82-973.04-239.11-42.72-692.83 185.41-908.62 545.85 98.26-35.81 190.99-57.48 275.9-59.12-48.74 19.57-88.3 44.43-134.63 95.29z" stroke="#000" stroke-opacity="0" stroke-width="1.3333"/> <path id="d" d="m1499.6 913.44c421.29-29.08 668.71 128.35 895.66 456.09 4.29-13.4-11.11-81.88-6.21-97.19 243.97 134.54 354.29 298.34 445.83 701.8 270.83-720.88-23.36-1064.8-540.77-1281.6 169.79 176.22 334 358.67 354.3 601.79-201.26-287.73-483.57-455.81-759.44-549.24 4.43-162.52 151.75-334.1 347.51-503.46-289.02-47.47-600.11 82.47-800.12 349.2 11.05 48.69 10.17 86.46-37.29 150.87 36.83-7.17 71.01-7.01 96.62 16.95 16.56 46.75 14.45 99.41 3.91 154.75z" fill="#006F74"/> <path d="m2395.3 1369.5c4.29-13.4-11.11-81.88-6.21-97.19 243.97 134.54 354.29 298.34 445.83 701.8 270.83-720.88-23.36-1064.8-540.77-1281.6 169.79 176.22 334 358.67 354.3 601.79-201.26-287.73-483.57-455.81-759.44-549.24 4.43-162.52 151.75-334.1 347.51-503.46-289.02-47.47-600.11 82.47-800.12 349.2 11.05 48.69 10.17 86.46-37.29 150.87 36.83-7.17 71.01-7.01 96.62 16.95 16.56 46.75 14.45 99.41 3.91 154.75 421.29-29.08 668.71 128.35 895.66 456.09z" stroke="#000" stroke-opacity="0" stroke-width="1.3333"/> <path id="e" d="m212.47 1716.5c81.19-14.6 148.57-18.1 201.73-10.17 4.3 54.64-15.32 118.8-49.16 184.77 79.28-15.66 142.71-64.92 142.39-249.19 133.37-134.43 242.79-269.28 293.27-405.14l-55.94-49.17c99.25-44.19 159.34-144.08 250.88-255.97 40.68-59.33 140.71-130.53 354.3-130.53-63.26-17.31-133.76-18.84-213.59 0-77.98 20.35-150.88 62.73-228.85 128.84-71.92 64.39-134.17 105.64-188.17 127.14 104.27-267.36 333.08-506.77 717.06-466.18 221.19-246.39 482.92-377.01 800.12-349.2-296.44-61.41-573.05-8.21-811.98 262.75-58.22-23.89-118.13-31.64-179.69-23.73 62.55-98.5 159.06-183.05 279.7-257.67-486.11 135.89-782.01 465.3-950.99 923.87 22.4 21.73 41.3 40.05 55.94 54.25-73.4 173.49-224.68 344.95-417.02 515.33z" fill="#81CDC2"/> <path d="m414.2 1706.3c4.3 54.64-15.32 118.8-49.16 184.77 79.28-15.66 142.71-64.92 142.39-249.19 133.37-134.43 242.79-269.28 293.27-405.14l-55.94-49.17c99.25-44.19 159.34-144.08 250.88-255.97 40.68-59.33 140.71-130.53 354.3-130.53-63.26-17.31-133.76-18.84-213.59 0-77.98 20.35-150.88 62.73-228.85 128.84-71.92 64.39-134.17 105.64-188.17 127.14 104.27-267.36 333.08-506.77 717.06-466.18 221.19-246.39 482.92-377.01 800.12-349.2-296.44-61.41-573.05-8.21-811.98 262.75-58.22-23.89-118.13-31.64-179.69-23.73 62.55-98.5 159.06-183.05 279.7-257.67-486.11 135.89-782.01 465.3-950.99 923.87 22.4 21.73 41.3 40.05 55.94 54.25-73.4 173.49-224.68 344.95-417.02 515.33 81.19-14.6 148.57-18.1 201.73-10.17z" stroke="#000" stroke-opacity="0" stroke-width="1.3333"/> <path id="f" d="m954.96 1180.8c123.19-10.17 192.11-72.33 206.81-186.48-31.74-1.29-103.4 30.52-122.05 60.56-40.22 79.75-55.69 106.55-84.76 125.92z" fill="#fff"/> <path d="m1161.8 994.32c-31.74-1.29-103.4 30.52-122.05 60.56-40.22 79.75-55.69 106.55-84.76 125.92 123.19-10.17 192.11-72.33 206.81-186.48z" stroke="#000" stroke-opacity="0" stroke-width="1.3333"/> <path id="g" d="m1561.3 533.24c54.82 22.17 169.84 19.73 229.37-4.53 22.43 37.44 26.15 114.02 25.43 155.4 94.93-113.58 59.33-232.24 220.37-362.77-145.35-6.24-300.78 46.97-475.17 211.9z" fill="#000"/> <path d="m1790.7 528.71c22.43 37.44 26.15 114.02 25.43 155.4 94.93-113.58 59.33-232.24 220.37-362.77-145.35-6.24-300.78 46.97-475.17 211.9 54.82 22.17 169.84 19.73 229.37-4.53z" stroke="#000" stroke-opacity="0" stroke-width="1.3333"/> </svg>