<?xml version='1.0' encoding='utf-8'?>
<svg xmlns:xlink="http://www.w3.org/1999/xlink" xmlns="http://www.w3.org/2000/svg" width="662px" height="686px" style="shape-rendering:geometricPrecision; text-rendering:geometricPrecision; image-rendering:optimizeQuality; fill-rule:evenodd; clip-rule:evenodd" viewBox="0 0 662 686"> <defs> <style type="text/css">  .fil3 {fill:url(#id0);fill-rule:nonzero} .fil2 {fill:url(#id1);fill-rule:nonzero} .fil0 {fill:url(#id2);fill-rule:nonzero} .fil1 {fill:url(#id3);fill-rule:nonzero}  </style> <linearGradient id="id0" gradientUnits="userSpaceOnUse" x1="279.902" y1="308.806" x2="634.406" y2="160.676"> <stop offset="0" style="stop-color:#450445"/> <stop offset="0.25098" style="stop-color:#FF0066"/> <stop offset="1" style="stop-color:#FFCC00"/> </linearGradient> <linearGradient id="id1" gradientUnits="userSpaceOnUse" xlink:href="#id0" x1="380.116" y1="308.806" x2="25.6123" y2="160.676"> </linearGradient> <linearGradient id="id2" gradientUnits="userSpaceOnUse" xlink:href="#id0" x1="281.201" y1="555.923" x2="634.349" y2="408.36"> </linearGradient> <linearGradient id="id3" gradientUnits="userSpaceOnUse" xlink:href="#id0" x1="380.799" y1="556.777" x2="27.6509" y2="409.214"> </linearGradient> </defs> <g id="Layer_x0020_1"> <metadata id="CorelCorpID_0Corel-Layer"/> <g id="_194891760"> <path id="_195943904" class="fil0" d="M647.034 170.464c-124.277,207.68 -432.68,204.69 -316.404,514.466 116.927,-203.136 399.395,-265.403 316.404,-514.466z"/> <path id="_195943712" class="fil1" d="M14.9658 171.318c124.277,207.68 432.68,204.69 316.404,514.466 -116.927,-203.136 -399.395,-265.403 -316.404,-514.466z"/> <path id="_195943616" class="fil2" d="M40.3395 0.217323c124.277,207.68 405.946,127.536 289.67,437.311 -85.3608,-152.762 -365.45,-171.342 -289.67,-437.311z"/> <path id="_195943832" class="fil3" d="M619.68 0.217323c-124.277,207.68 -405.947,127.536 -289.671,437.311 85.3608,-152.762 365.45,-171.342 289.671,-437.311z"/> </g> </g> </svg>