<svg width="124" height="30" viewBox="0 0 124 30" fill="none" xmlns="http://www.w3.org/2000/svg">
<path d="M7.89788 2.7806L11.0896 14.6922V1.59633C11.3427 1.53727 11.5985 1.48526 11.8568 1.44052V14.6935L15.4466 1.2959C15.7053 1.31932 15.962 1.34996 16.2163 1.38763L12.5975 14.8931L19.7907 2.43412C20.0251 2.53954 20.2559 2.65139 20.483 2.76944L13.2629 15.2749L23.5704 4.96739C23.7563 5.14313 23.9372 5.32404 24.1129 5.50988L13.8038 15.8189L26.3108 8.59802C26.4288 8.82513 26.5407 9.05597 26.646 9.29032L14.1901 16.4818L27.6919 12.864C27.7296 13.1183 27.7602 13.3749 27.7836 13.6336L14.3862 17.2234L27.6388 17.2234C27.5941 17.4817 27.542 17.7375 27.483 17.9906L14.3842 17.9906L26.2981 21.1829C26.1758 21.4172 26.0468 21.6475 25.9115 21.8736L14.189 18.7325L23.98 24.3854C23.7946 24.576 23.6038 24.7612 23.4076 24.9408L13.8063 19.3974L21.0714 26.6626C20.8416 26.7969 20.6076 26.9246 20.3695 27.0455L13.263 19.9391L17.9192 28.0039C17.6643 28.076 17.4063 28.1408 17.1456 28.1982L12.598 20.3215L14.7905 28.5043C14.5951 28.5127 14.3986 28.5169 14.2011 28.5169C14.1337 28.5169 14.0664 28.5164 13.9993 28.5154L11.8568 20.5194V28.3161C11.5985 28.2714 11.3427 28.2194 11.0896 28.1603V20.5207L9.20049 27.5709C8.95954 27.4759 8.72194 27.3743 8.48793 27.2662L10.3483 20.3232L6.85601 26.372C6.63981 26.2335 6.42777 26.0892 6.22012 25.9391L9.68494 19.9378L4.8327 24.7901C4.64685 24.6144 4.46594 24.4335 4.29021 24.2476L9.14091 19.3969L3.1414 22.8607C2.99128 22.6531 2.84686 22.4411 2.70838 22.2249L8.76003 18.731L1.81363 20.5923C1.70551 20.3582 1.60383 20.1207 1.50881 19.8797L8.55902 17.9906L0.919322 17.9906C0.860249 17.7375 0.808222 17.4817 0.763461 17.2234L8.55695 17.2234L0.564093 15.0818C0.563103 15.0141 0.562607 14.9463 0.562607 14.8783C0.562607 14.6814 0.566782 14.4854 0.575048 14.2905L8.75891 16.4833L0.881018 11.935C0.93838 11.6742 1.00321 11.4163 1.07526 11.1613L9.14334 15.8194L2.03392 8.71001C2.15487 8.4719 2.28261 8.23782 2.41687 8.00802L9.68503 15.2762L4.13948 5.671C4.31905 5.47488 4.50427 5.28402 4.6949 5.09869L10.3487 14.8914L7.20723 3.16715C7.43329 3.03186 7.66359 2.90293 7.89788 2.7806Z" fill="white"/>
<path d="M36.4246 21.0214H39.3928V15.866H45.312V13.245H39.3928V11.0405H45.6938V8.43677H36.4246V21.0214Z" fill="white"/>
<path d="M50.7387 13.6268C51.867 13.6268 52.7696 14.3212 52.7696 16.3174C52.7696 18.2788 51.9017 19.0252 50.7387 19.0252C49.5757 19.0252 48.7078 18.2788 48.7078 16.3174C48.7078 14.3212 49.6104 13.6268 50.7387 13.6268ZM50.7387 11.405C48.1523 11.405 45.7916 12.9325 45.7916 16.3174C45.7916 19.7022 48.1523 21.2471 50.7387 21.2471C53.325 21.2471 55.6857 19.7022 55.6857 16.3174C55.6857 12.9325 53.325 11.405 50.7387 11.405Z" fill="white"/>
<path d="M61.1854 11.405C58.356 11.405 56.4119 13.3318 56.4119 16.3C56.4119 19.2682 58.113 21.2471 61.1854 21.2471C63.0601 21.2471 65.2993 20.3618 65.9416 17.5845H63.2684C63.0601 18.4698 62.4179 19.0252 61.359 19.0252C60.3349 19.0252 59.3281 18.3483 59.3281 16.3174C59.3281 14.3212 60.3349 13.6268 61.359 13.6268C62.2096 13.6268 62.8865 14.0087 63.1469 15.1023H65.82C65.2646 12.2903 63.1295 11.405 61.1854 11.405Z" fill="white"/>
<path d="M72.6714 15.1891C69.0435 15.4668 66.4571 16.2132 66.4571 18.5045C66.4571 20.2056 67.9152 21.2471 69.6858 21.2471C71.0223 21.2471 72.1333 20.8825 72.8276 19.8931L72.8623 21.0214H75.6743C75.5354 20.4312 75.466 19.3377 75.466 18.3135V17.3415L75.5007 15.3106C75.5528 12.4812 74.0253 11.3877 71.3348 11.3877C68.5575 11.3877 66.8911 12.9499 66.7522 14.7031H69.4254C69.5469 13.8004 70.1718 13.3318 71.0918 13.3318C72.1333 13.3318 72.6714 13.7136 72.6714 14.8246V15.1891ZM72.7408 17.0985C72.7408 18.8169 71.8729 19.303 70.7272 19.303C69.9808 19.303 69.408 18.9037 69.408 18.2962C69.408 17.2894 70.7446 17.0638 72.7408 16.8728V17.0985Z" fill="white"/>
<path d="M79.8347 8.43677H76.9706V21.0214H79.8347V8.43677Z" fill="white"/>
<path d="M81.6608 8.43677V21.0214H84.6291V16.6645H86.5037C89.7671 16.6645 92.2146 15.8487 92.2146 12.5333C92.2146 9.23524 89.7671 8.43677 86.5037 8.43677H81.6608ZM86.5905 10.9363C87.9792 10.9363 89.0728 11.2141 89.0728 12.5333C89.0728 13.8525 87.9792 14.1649 86.5905 14.1649H84.6291V10.9363H86.5905Z" fill="white"/>
<path d="M97.2463 13.6268C98.3745 13.6268 99.2772 14.3212 99.2772 16.3174C99.2772 18.2788 98.4093 19.0252 97.2463 19.0252C96.0833 19.0252 95.2154 18.2788 95.2154 16.3174C95.2154 14.3212 96.118 13.6268 97.2463 13.6268ZM97.2463 11.405C94.6599 11.405 92.2992 12.9325 92.2992 16.3174C92.2992 19.7022 94.6599 21.2471 97.2463 21.2471C99.8326 21.2471 102.193 19.7022 102.193 16.3174C102.193 12.9325 99.8326 11.405 97.2463 11.405Z" fill="white"/>
<path d="M103.339 11.6827V21.0214H106.221V11.6827H103.339ZM103.339 8.43677V10.728H106.203V8.43677H103.339Z" fill="white"/>
<path d="M110.789 11.6827H107.925V21.0214H110.789V16.2306C110.789 14.4948 111.293 13.6963 112.525 13.6963C113.914 13.6963 113.966 14.7898 113.966 16.1264V21.0214H116.83V15.4147C116.83 12.8804 116.083 11.4744 113.688 11.4744C112.212 11.4744 111.206 12.2208 110.789 12.9152V11.6827Z" fill="white"/>
<path d="M118.81 11.6827H117.335V13.7136H118.81V18.4003C118.81 20.5701 119.591 21.0214 121.9 21.0214H123.723V18.9558H122.907C121.952 18.9558 121.674 18.7822 121.674 17.8969V13.7136H123.723V11.6827H121.674V9.13109H118.81V11.6827Z" fill="white"/>
</svg>
