<svg width="112" height="30" viewBox="0 0 112 30" fill="none" xmlns="http://www.w3.org/2000/svg">
<path d="M16.043 22.1857C13.8732 21.3798 11.6414 21.2558 9.59565 21.8137C8.16981 22.1857 6.80595 22.9296 5.56609 23.8595L4.69816 24.6034L4.4502 24.8514L5.00813 25.3473C5.07012 25.3473 5.07013 25.4093 5.13213 25.4713C5.25611 25.5953 5.38011 25.6573 5.56609 25.7813L5.93803 26.0293L6.31 25.7193C6.37199 25.6573 6.49598 25.5333 6.61996 25.4713C7.73584 24.5414 8.9757 23.9215 10.2776 23.6115C11.9514 23.1776 13.7492 23.2396 15.547 23.9215C17.0348 24.4794 20.0725 25.1614 23.7301 23.6115L23.8541 23.5495L24.0401 23.3636C24.0401 23.3016 24.1021 23.3016 24.1641 23.2396C24.4741 22.8676 24.784 22.4956 25.032 22.0617L26.2719 20.1399L24.2881 21.2558C21.3744 22.8676 18.7087 23.1776 16.043 22.1857Z" fill="white"/>
<path d="M7.54987 15.4908C9.22369 15.0569 11.0215 15.1188 12.8193 15.8008C14.8031 16.5447 19.8865 17.5986 25.5899 12.4531L26.5198 11.5232L26.5818 11.4612L26.8298 11.2133L26.7058 10.9033C26.6438 10.6553 26.5198 10.3454 26.3958 10.0354L26.0859 9.16748L25.4659 9.78741C25.4039 9.9114 25.28 9.97339 25.156 10.0974C22.4283 12.8871 18.2127 15.7388 13.3772 14.003C11.2075 13.1971 8.97572 13.0731 6.92994 13.631C4.94615 14.1889 3.21034 15.2428 1.59851 16.7307V16.6687L0.668609 17.6606C0.668609 17.7226 0.606627 17.7226 0.544634 17.7846L0.358643 17.9705L0.42064 18.2185C0.482633 18.5285 0.606616 18.8384 0.668609 19.1484L1.04057 20.1403L1.66051 19.3344C1.7225 19.2104 1.84648 19.1484 1.90848 19.0244C3.21034 17.8466 5.00815 16.1727 7.54987 15.4908Z" fill="white"/>
<path d="M1.53644 14.3745C2.96229 12.8867 4.5741 11.9568 6.30991 11.4608C7.98373 11.0269 9.78154 11.0888 11.5793 11.7708C17.1587 13.8166 21.9942 10.4689 24.102 8.67111L24.9079 7.8652L25.2179 7.61722L24.9699 7.24527C24.7839 7.05929 24.6599 6.81131 24.474 6.56334L24.102 6.06738L23.668 6.50134C23.6061 6.56334 23.4821 6.68732 23.4201 6.74931C20.8164 9.22905 16.7868 11.7708 12.1993 10.035C10.0295 9.22906 7.79776 9.10507 5.75198 9.66301C4.45012 10.035 3.21025 10.6549 1.97038 11.4608L0.668517 12.5147C0.544531 12.6387 0.482537 12.7007 0.358551 12.8247L0.234575 12.9486V13.1346C0.172582 13.5686 0.172574 14.0025 0.110581 14.3745L0.048584 15.9243L1.10248 14.8084C1.22646 14.6845 1.35046 14.4985 1.53644 14.3745Z" fill="white"/>
<path d="M17.8407 26.4013L17.7168 26.7733L17.8407 26.4013C17.6548 26.3393 17.5308 26.2773 17.3448 26.2153C15.175 25.4094 12.9433 25.2854 10.8975 25.8434C10.4635 25.9673 10.0296 26.0913 9.59564 26.2773L8.10778 26.9592L7.73584 27.1452L8.97571 27.5792C9.34767 27.7031 9.71962 27.8271 10.0916 27.9511L10.2776 28.0131L10.4635 27.9511C10.6495 27.8891 10.8355 27.7651 11.0215 27.7651C11.1455 27.7651 11.2695 27.7032 11.3934 27.6412C12.8813 27.2692 14.4931 27.2692 16.2289 27.8271C16.4149 27.8891 16.5389 27.9511 16.7249 28.0131L17.0348 28.1371L17.2208 28.0751C17.6548 27.9511 18.1507 27.8271 18.5227 27.6412L20.2585 27.0212L18.4607 26.5873C18.2747 26.5253 18.0267 26.4633 17.8407 26.4013Z" fill="white"/>
<path d="M27.3256 13.5688L26.3957 14.4987C26.2717 14.6227 26.1478 14.7467 26.0238 14.8707C23.4821 17.2885 19.3905 19.8922 14.803 18.1564C12.6332 17.3504 10.4015 17.2265 8.35569 17.7844C6.4339 18.3423 4.69807 19.3342 3.14824 20.8221L2.34233 21.69L2.09436 21.9999L2.34233 22.3719C2.52831 22.6199 2.6523 22.8059 2.77629 23.0538L3.14824 23.6118L3.5822 23.0538C3.64419 22.9918 3.76817 22.8678 3.83017 22.8058C5.31801 21.194 6.92983 20.2021 8.78963 19.7062C10.4635 19.2722 12.2613 19.3342 14.0591 20.0161C15.6089 20.5741 17.2207 20.7601 18.8326 20.5741C21.6842 20.2641 24.5359 18.6523 26.6437 16.8545C26.7677 16.7305 26.8917 16.6685 27.0157 16.5445L27.2017 16.3585V16.1726C27.2017 15.8006 27.2637 15.3667 27.2637 14.9947L27.3256 13.5688Z" fill="white"/>
<path d="M3.76837 7.86564L3.58239 7.49368L3.76837 7.86564C4.14033 7.67966 4.57429 7.55567 4.94625 7.43168C6.62007 6.99773 8.41788 7.05972 10.2157 7.74165C11.3936 8.1756 12.5714 8.36158 13.8733 8.36158C16.477 8.36158 19.0807 7.43168 21.4985 5.63388L22.4284 4.88995L22.7383 4.64198L22.1804 4.20802C21.9944 4.02204 21.7464 3.83607 21.4985 3.71208L21.1265 3.46411L20.8165 3.71208C20.6925 3.77407 20.6306 3.89806 20.5066 3.96005C17.2209 6.43978 13.9353 7.12172 10.8356 5.94384C8.60386 5.13793 6.37209 4.95195 4.14033 5.63388C3.95435 5.69587 3.76837 5.75786 3.5204 5.81985L3.39642 5.88185L3.21043 6.06782C3.21043 6.12981 3.14845 6.12982 3.08646 6.19181C2.83848 6.56377 2.5285 6.87375 2.28053 7.24571L1.10266 9.04351L3.02446 8.05161C3.33442 8.05161 3.58239 7.92763 3.76837 7.86564Z" fill="white"/>
<path d="M8.85171 3.64979L9.03769 3.71179C9.8436 4.02175 11.0835 4.33172 12.6333 4.33172C14.2451 4.33172 15.795 3.95976 17.3448 3.33982L19.2666 2.40992L17.9647 1.97598C17.5928 1.852 17.2208 1.72801 16.7869 1.66602H16.6009L16.4149 1.72799C16.2289 1.78999 16.0429 1.91399 15.857 1.97598C13.9972 2.65791 12.1374 2.7819 10.3395 2.28595C10.1536 2.22396 9.96759 2.16195 9.78161 2.09996L9.59564 2.03796L9.40965 2.09996C9.03769 2.22394 8.66574 2.34794 8.29378 2.53392L6.86792 3.15385L8.35577 3.58779C8.47976 3.5258 8.66573 3.5878 8.85171 3.64979Z" fill="white"/>
<path d="M38.038 21.0213H35.1779L39.5359 8.39723H42.9755L47.3273 21.0213H44.4672L41.305 11.282H41.2064L38.038 21.0213ZM37.8592 16.0592H44.6151V18.1427H37.8592V16.0592Z" fill="white"/>
<path d="M51.4234 8.39723V21.0213H48.7975V8.39723H51.4234Z" fill="white"/>
<path d="M58.5629 11.5533V13.5258H52.8611V11.5533H58.5629ZM54.1556 9.28486H56.7815V18.1119C56.7815 18.3543 56.8185 18.5434 56.8925 18.679C56.9664 18.8105 57.0692 18.9029 57.2007 18.9563C57.3363 19.0098 57.4924 19.0365 57.6691 19.0365C57.7924 19.0365 57.9157 19.0262 58.039 19.0057C58.1623 18.981 58.2568 18.9625 58.3225 18.9502L58.7355 20.9042C58.604 20.9453 58.4191 20.9926 58.1808 21.046C57.9424 21.1035 57.6527 21.1384 57.3116 21.1508C56.6788 21.1754 56.124 21.0912 55.6473 20.898C55.1747 20.7049 54.8069 20.4049 54.5439 19.9981C54.2809 19.5912 54.1515 19.0776 54.1556 18.4571V9.28486Z" fill="white"/>
<path d="M63.7331 20.3371V11.6087H65.9398V20.3371H63.7331ZM60.4723 17.0763V14.8695H69.2007V17.0763H60.4723Z" fill="white"/>
<path d="M78.6811 12.0279C78.6317 11.5306 78.4201 11.1444 78.0461 10.869C77.6722 10.5937 77.1647 10.456 76.5236 10.456C76.088 10.456 75.7202 10.5177 75.4202 10.641C75.1203 10.7601 74.8901 10.9266 74.7299 11.1403C74.5737 11.3539 74.4956 11.5964 74.4956 11.8676C74.4874 12.0936 74.5347 12.2909 74.6374 12.4594C74.7442 12.6279 74.8901 12.7737 75.0751 12.897C75.26 13.0162 75.4737 13.121 75.7161 13.2114C75.9586 13.2977 76.2175 13.3717 76.4928 13.4333L77.627 13.7045C78.1777 13.8278 78.6831 13.9922 79.1434 14.1977C79.6036 14.4031 80.0022 14.6559 80.3392 14.9558C80.6762 15.2558 80.9371 15.6092 81.122 16.0161C81.3111 16.4229 81.4076 16.8893 81.4118 17.4153C81.4076 18.1879 81.2104 18.8577 80.82 19.4248C80.4337 19.9878 79.8748 20.4255 79.1434 20.7378C78.416 21.046 77.5386 21.2001 76.5113 21.2001C75.4922 21.2001 74.6045 21.0439 73.8484 20.7316C73.0964 20.4193 72.5087 19.957 72.0855 19.3447C71.6663 18.7283 71.4464 17.966 71.4259 17.0578H74.0087C74.0374 17.4811 74.1586 17.8345 74.3723 18.118C74.5901 18.3975 74.8799 18.6091 75.2415 18.7529C75.6072 18.8926 76.0202 18.9625 76.4805 18.9625C76.9325 18.9625 77.3249 18.8968 77.6578 18.7653C77.9948 18.6338 78.2557 18.4509 78.4407 18.2167C78.6256 17.9824 78.718 17.7133 78.718 17.4092C78.718 17.1256 78.6338 16.8873 78.4653 16.6941C78.3009 16.501 78.0585 16.3366 77.7379 16.201C77.4215 16.0654 77.0332 15.9421 76.5729 15.8311L75.1983 15.486C74.134 15.2271 73.2936 14.8223 72.6772 14.2716C72.0608 13.721 71.7547 12.9792 71.7588 12.0464C71.7547 11.282 71.9581 10.6143 72.369 10.043C72.7841 9.47184 73.3532 9.02597 74.0765 8.70543C74.7997 8.3849 75.6216 8.22463 76.5421 8.22463C77.4791 8.22463 78.2968 8.3849 78.9954 8.70543C79.6981 9.02597 80.2447 9.47184 80.6351 10.043C81.0255 10.6143 81.2268 11.2759 81.2392 12.0279H78.6811Z" fill="white"/>
<path d="M85.7836 15.5476V21.0213H83.1577V8.39723H85.7097V13.2237H85.8206C86.0343 12.6648 86.3795 12.2272 86.8562 11.9108C87.3329 11.5902 87.9308 11.43 88.65 11.43C89.3075 11.43 89.8807 11.5738 90.3697 11.8615C90.8629 12.145 91.245 12.5539 91.5163 13.0881C91.7916 13.6182 91.9272 14.2531 91.9231 14.9928V21.0213H89.2972V15.4613C89.3013 14.8778 89.1534 14.4237 88.8534 14.099C88.5575 13.7744 88.1424 13.6121 87.6082 13.6121C87.2507 13.6121 86.9343 13.6881 86.6589 13.8401C86.3877 13.9922 86.174 14.2141 86.0179 14.5059C85.8658 14.7935 85.7878 15.1408 85.7836 15.5476Z" fill="white"/>
<path d="M93.9896 21.0213V11.5533H96.6155V21.0213H93.9896ZM95.3087 10.3328C94.9183 10.3328 94.5834 10.2033 94.304 9.94442C94.0287 9.68142 93.891 9.36705 93.891 9.00131C93.891 8.63968 94.0287 8.32942 94.304 8.07053C94.5834 7.80753 94.9183 7.67603 95.3087 7.67603C95.6991 7.67603 96.032 7.80753 96.3073 8.07053C96.5868 8.32942 96.7265 8.63968 96.7265 9.00131C96.7265 9.36705 96.5868 9.68142 96.3073 9.94442C96.032 10.2033 95.6991 10.3328 95.3087 10.3328Z" fill="white"/>
<path d="M104.749 11.5533V13.5258H97.967V11.5533H104.749ZM99.3046 21.0213V10.869C99.3046 10.1828 99.4382 9.61361 99.7053 9.16158C99.9765 8.70954 100.346 8.37052 100.815 8.1445C101.283 7.91848 101.815 7.80547 102.411 7.80547C102.814 7.80547 103.182 7.83629 103.515 7.89793C103.852 7.95958 104.102 8.01505 104.267 8.06437L103.798 10.0369C103.696 10.004 103.568 9.97318 103.416 9.94442C103.268 9.91565 103.116 9.90127 102.96 9.90127C102.574 9.90127 102.304 9.99168 102.152 10.1725C102 10.3492 101.924 10.5978 101.924 10.9183V21.0213H99.3046Z" fill="white"/>
<path d="M110.451 11.5533V13.5258H104.749V11.5533H110.451ZM106.044 9.28486H108.669V18.1119C108.669 18.3543 108.706 18.5434 108.78 18.679C108.854 18.8105 108.957 18.9029 109.089 18.9563C109.224 19.0098 109.38 19.0365 109.557 19.0365C109.68 19.0365 109.804 19.0262 109.927 19.0057C110.05 18.981 110.145 18.9625 110.21 18.9502L110.623 20.9042C110.492 20.9453 110.307 20.9926 110.069 21.046C109.83 21.1035 109.541 21.1384 109.2 21.1508C108.567 21.1754 108.012 21.0912 107.535 20.898C107.063 20.7049 106.695 20.4049 106.432 19.9981C106.169 19.5912 106.039 19.0776 106.044 18.4571V9.28486Z" fill="white"/>
</svg>
