<svg width="102" height="30" viewBox="0 0 102 30" fill="none" xmlns="http://www.w3.org/2000/svg">
<circle cx="10.6628" cy="11.1587" r="8.67907" stroke="white" stroke-width="2.47973"/>
<circle cx="15.6223" cy="18.5981" r="8.67907" stroke="white" stroke-width="2.47973"/>
<path d="M32.9494 21.0215H35.7577V8.00295H32.9494V21.0215Z" fill="white"/>
<path d="M36.9898 21.0215H39.5935V15.8885C39.5935 14.6796 40.3933 13.8055 41.5277 13.8055C42.6064 13.8055 43.3317 14.6238 43.3317 15.7583V21.0215H45.9355V15.1818C45.9355 13.0244 44.5592 11.4994 42.439 11.4994C41.1558 11.4994 40.1143 12.0387 39.5935 12.95V11.6482H36.9898V21.0215Z" fill="white"/>
<path d="M47.821 8.87706V11.6482H46.017V13.8055H47.821V17.6181C47.821 19.7941 49.2158 21.0215 51.3732 21.0215H52.9168V18.8456H51.7265C50.8896 18.8456 50.4061 18.4178 50.4061 17.5065V13.8055H52.9168V11.6482H50.4061V8.87706H47.821Z" fill="white"/>
<path d="M59.487 17.8413C59.2824 18.641 58.5943 19.0502 57.5528 19.0502C56.2509 19.0502 55.414 18.2318 55.2281 16.9114H61.9605C61.9791 16.7068 61.9977 16.4278 61.9977 16.0745C61.9977 13.9357 60.6773 11.4994 57.3668 11.4994C54.1866 11.4994 52.7359 13.9357 52.7359 16.3163C52.7359 18.6782 54.3726 21.1703 57.5528 21.1703C59.859 21.1703 61.6444 19.8685 62.0163 17.8413H59.487ZM57.3668 13.3964C58.6129 13.3964 59.3382 14.2333 59.4126 15.2748H55.2653C55.4884 13.9729 56.1952 13.3964 57.3668 13.3964Z" fill="white"/>
<path d="M68.5038 13.8055V11.6482H67.4437C66.3093 11.6482 65.6025 12.0387 65.1004 13.2104V11.6482H62.4967V21.0215H65.1004V16.465C65.1004 14.8656 65.6769 13.8055 66.9602 13.8055H68.5038Z" fill="white"/>
<path d="M68.9259 21.0215H71.511V7.5752H68.9259V21.0215Z" fill="white"/>
<path d="M77.0874 21.1703C79.9701 21.1703 82.0345 19.1246 82.0345 16.3349C82.0345 13.5452 79.9701 11.4994 77.0874 11.4994C74.2047 11.4994 72.1403 13.5452 72.1403 16.3349C72.1403 19.1246 74.2047 21.1703 77.0874 21.1703ZM77.0874 18.9386C75.6925 18.9386 74.744 17.8785 74.744 16.3349C74.744 14.7726 75.6925 13.7125 77.0874 13.7125C78.4822 13.7125 79.4307 14.7726 79.4307 16.3349C79.4307 17.8785 78.4822 18.9386 77.0874 18.9386Z" fill="white"/>
<path d="M86.8705 21.1703C89.3069 21.1703 91.2411 19.6081 91.52 17.5251H88.8791C88.6931 18.362 87.9306 18.9386 86.9821 18.9386C85.5687 18.9386 84.7318 17.8599 84.7318 16.3349C84.7318 14.8098 85.5501 13.7125 86.9449 13.7125C87.8934 13.7125 88.6931 14.3263 88.8419 15.1632H91.4456C91.2782 12.9872 89.3255 11.4994 86.8705 11.4994C83.9692 11.4994 82.035 13.6009 82.035 16.3349C82.035 19.0688 83.9692 21.1703 86.8705 21.1703Z" fill="white"/>
<path d="M98.3583 21.0215H101.483L97.447 15.3306L101.185 11.6482H97.9119L94.6573 14.847V7.5752H92.0535V21.0215H94.6573V18.0831L95.6988 17.0602L98.3583 21.0215Z" fill="white"/>
</svg>
