<svg width="136" height="30" viewBox="0 0 136 30" fill="none" xmlns="http://www.w3.org/2000/svg">
<path opacity="0.8" fill-rule="evenodd" clip-rule="evenodd" d="M3.03506 18.0169C3.65366 18.632 3.65365 19.6292 3.03504 20.2442L3.00336 20.2757C2.38475 20.8907 1.38179 20.8907 0.763197 20.2757C0.1446 19.6606 0.144609 18.6635 0.763219 18.0484L0.7949 18.0169C1.41351 17.4019 2.41646 17.4019 3.03506 18.0169Z" fill="white"/>
<path opacity="0.9" fill-rule="evenodd" clip-rule="evenodd" d="M10.4821 18.4914C11.0996 19.1075 11.0978 20.1047 10.478 20.7186L6.09027 25.0653C5.47055 25.6792 4.4676 25.6774 3.85011 25.0613C3.23263 24.4451 3.23444 23.448 3.85416 22.834L8.24194 18.4873C8.86166 17.8734 9.86461 17.8752 10.4821 18.4914Z" fill="white"/>
<path opacity="0.8" fill-rule="evenodd" clip-rule="evenodd" d="M16.4373 25.9739C16.9226 25.2502 17.9061 25.0547 18.634 25.5371L18.729 25.6001C19.457 26.0826 19.6537 27.0604 19.1684 27.7841C18.6831 28.5078 17.6996 28.7034 16.9717 28.2209L16.8767 28.1579C16.1488 27.6754 15.9521 26.6976 16.4373 25.9739Z" fill="white"/>
<path opacity="0.9" fill-rule="evenodd" clip-rule="evenodd" d="M26.8906 17.9225C27.5092 18.5375 27.5092 19.5347 26.8906 20.1497L24.7363 22.2915C24.1177 22.9066 23.1148 22.9066 22.4962 22.2915C21.8776 21.6765 21.8776 20.6793 22.4962 20.0643L24.6505 17.9225C25.2691 17.3074 26.272 17.3074 26.8906 17.9225Z" fill="white"/>
<path fill-rule="evenodd" clip-rule="evenodd" d="M26.9223 10.0008C27.5409 10.6159 27.5409 11.613 26.9223 12.2281L11.0028 28.0557C10.3842 28.6707 9.3812 28.6707 8.7626 28.0557C8.14399 27.4406 8.14399 26.4435 8.7626 25.8285L24.6821 10.0008C25.3007 9.38579 26.3037 9.38579 26.9223 10.0008Z" fill="white"/>
<path fill-rule="evenodd" clip-rule="evenodd" d="M23.9127 5.13437C24.5313 5.7494 24.5313 6.74657 23.9127 7.3616L14.757 16.4645C14.1384 17.0795 13.1354 17.0795 12.5168 16.4645C11.8982 15.8494 11.8982 14.8523 12.5168 14.2372L21.6725 5.13437C22.2911 4.51934 23.2941 4.51934 23.9127 5.13437Z" fill="white"/>
<path fill-rule="evenodd" clip-rule="evenodd" d="M19.0806 2.04695C19.6997 2.66157 19.7003 3.65873 19.0822 4.27418L7.31278 15.9913C6.69459 16.6068 5.69164 16.6075 5.07262 15.9928C4.4536 15.3782 4.45292 14.3811 5.07111 13.7656L16.8405 2.04845C17.4587 1.433 18.4616 1.43233 19.0806 2.04695Z" fill="white"/>
<path opacity="0.9" fill-rule="evenodd" clip-rule="evenodd" d="M7.42477 5.79766C8.04231 6.41375 8.04058 7.41092 7.42092 8.02489L2.81138 12.5921C2.19171 13.206 1.18876 13.2043 0.571218 12.5882C-0.0463195 11.9721 -0.0445933 10.975 0.575074 10.361L5.18461 5.79383C5.80428 5.17986 6.80723 5.18158 7.42477 5.79766Z" fill="white"/>
<path opacity="0.8" fill-rule="evenodd" clip-rule="evenodd" d="M10.247 1.23975C11.1218 1.23975 11.831 1.94485 11.831 2.81463V2.97212C11.831 3.84191 11.1218 4.54701 10.247 4.54701C9.37216 4.54701 8.66296 3.84191 8.66296 2.97212V2.81463C8.66296 1.94485 9.37216 1.23975 10.247 1.23975Z" fill="white"/>
<path d="M38.545 14.5495H40.9813C41.8864 14.5495 42.68 14.4255 43.3619 14.1775C44.0562 13.9171 44.6018 13.5452 44.9985 13.0616C45.4077 12.5781 45.6122 11.9953 45.6122 11.3134C45.6122 10.5695 45.4077 9.95577 44.9985 9.47222C44.6018 8.97627 44.0562 8.61051 43.3619 8.37494C42.68 8.12696 41.8864 8.00298 40.9813 8.00298H36.2017V21.0216H41.2975C42.3266 21.0216 43.2193 20.8976 43.9756 20.6496C44.7319 20.3892 45.3147 19.9925 45.7238 19.4593C46.1454 18.9262 46.3562 18.2257 46.3562 17.3578C46.3562 16.7006 46.2074 16.1427 45.9098 15.6839C45.6246 15.2128 45.2403 14.8284 44.7567 14.5309C44.2732 14.2209 43.7338 13.9977 43.1387 13.8613C42.5436 13.725 41.9298 13.6568 41.2975 13.6568H38.545V15.3678H40.9441C41.2541 15.3678 41.5331 15.3988 41.7811 15.4608C42.0414 15.5104 42.2708 15.5972 42.4692 15.7211C42.6676 15.8451 42.8225 16.0063 42.9341 16.2047C43.0457 16.4031 43.1015 16.6386 43.1015 16.9114C43.1015 17.333 43.0023 17.6677 42.8039 17.9157C42.618 18.1513 42.3638 18.3249 42.0414 18.4365C41.7191 18.5356 41.3533 18.5852 40.9441 18.5852H39.3447V10.4393H40.6466C41.1921 10.4393 41.6137 10.5509 41.9112 10.7741C42.2088 10.9973 42.3576 11.332 42.3576 11.7784C42.3576 12.0759 42.2894 12.3301 42.153 12.5409C42.0166 12.7393 41.8183 12.8942 41.5579 13.0058C41.3099 13.1174 41.0061 13.1732 40.6466 13.1732H38.545V14.5495Z" fill="white"/>
<path d="M47.5476 9.24904C47.5476 9.69539 47.7088 10.0612 48.0311 10.3463C48.3535 10.6315 48.7379 10.7741 49.1842 10.7741C49.643 10.7741 50.0273 10.6315 50.3373 10.3463C50.6597 10.0612 50.8208 9.69539 50.8208 9.24904C50.8208 8.80269 50.6597 8.44313 50.3373 8.17036C50.0273 7.88519 49.643 7.7426 49.1842 7.7426C48.7379 7.7426 48.3535 7.88519 48.0311 8.17036C47.7088 8.44313 47.5476 8.80269 47.5476 9.24904ZM47.8266 12.4665V21.0216H50.5419V12.4665H47.8266Z" fill="white"/>
<path d="M51.7948 16.744C51.7948 17.6367 52.0055 18.4179 52.4271 19.0874C52.8487 19.7569 53.4314 20.2777 54.1753 20.6496C54.9192 21.0216 55.7561 21.2076 56.686 21.2076C57.6159 21.2076 58.4467 21.0216 59.1782 20.6496C59.9221 20.2777 60.5048 19.7569 60.9264 19.0874C61.3603 18.4179 61.5773 17.6367 61.5773 16.744C61.5773 15.8389 61.3603 15.0516 60.9264 14.3821C60.5048 13.7126 59.9221 13.1918 59.1782 12.8199C58.4467 12.4479 57.6159 12.2619 56.686 12.2619C55.7561 12.2619 54.9192 12.4479 54.1753 12.8199C53.4314 13.1918 52.8487 13.7126 52.4271 14.3821C52.0055 15.0516 51.7948 15.8389 51.7948 16.744ZM54.6775 16.744C54.6775 16.2977 54.7705 15.9133 54.9564 15.591C55.1424 15.2686 55.3842 15.0206 55.6818 14.847C55.9793 14.6735 56.3141 14.5867 56.686 14.5867C57.0456 14.5867 57.3742 14.6735 57.6717 14.847C57.9817 15.0206 58.2235 15.2686 58.3971 15.591C58.583 15.9133 58.676 16.2977 58.676 16.744C58.676 17.1904 58.583 17.5747 58.3971 17.8971C58.2235 18.2071 57.9817 18.4489 57.6717 18.6224C57.3742 18.796 57.0456 18.8828 56.686 18.8828C56.3141 18.8828 55.9793 18.796 55.6818 18.6224C55.3842 18.4489 55.1424 18.2071 54.9564 17.8971C54.7705 17.5747 54.6775 17.1904 54.6775 16.744Z" fill="white"/>
<path d="M63.1738 17.9157L62.0022 19.7755C62.3865 20.0731 62.8019 20.3458 63.2482 20.5938C63.6946 20.8294 64.1781 21.0154 64.6989 21.1518C65.232 21.3005 65.8086 21.3749 66.4285 21.3749C67.4452 21.3749 68.2325 21.1456 68.7904 20.6868C69.3608 20.2157 69.6459 19.5213 69.6459 18.6038C69.6459 18.0707 69.5282 17.6429 69.2926 17.3206C69.0694 16.9982 68.7656 16.7316 68.3813 16.5209C68.0093 16.3101 67.6002 16.1241 67.1538 15.9629C66.7323 15.8017 66.3727 15.6715 66.0751 15.5724C65.79 15.4608 65.5668 15.343 65.4056 15.219C65.2568 15.095 65.1824 14.94 65.1824 14.754C65.1824 14.5929 65.2444 14.4627 65.3684 14.3635C65.5048 14.2643 65.7032 14.2147 65.9635 14.2147C66.3479 14.2147 66.7695 14.3263 67.2282 14.5495C67.687 14.7602 68.0961 15.033 68.4557 15.3678L69.46 13.5452C69.1252 13.2972 68.7656 13.0802 68.3813 12.8942C68.0093 12.7083 67.6064 12.5595 67.1724 12.4479C66.7509 12.3363 66.2921 12.2805 65.7962 12.2805C65.1762 12.2805 64.6245 12.3735 64.1409 12.5595C63.6698 12.7455 63.2916 13.0182 63.0065 13.3778C62.7337 13.7374 62.5973 14.1775 62.5973 14.6983C62.5973 15.2438 62.7151 15.6901 62.9507 16.0373C63.1862 16.3845 63.4838 16.6634 63.8434 16.8742C64.2153 17.0726 64.6059 17.2462 65.015 17.395C65.4738 17.5314 65.8334 17.6615 66.0937 17.7855C66.3665 17.9095 66.5587 18.0397 66.6703 18.1761C66.7818 18.3001 66.8376 18.4551 66.8376 18.641C66.8376 18.8394 66.7694 19.0006 66.6331 19.1246C66.4967 19.2486 66.2859 19.3106 66.0007 19.3106C65.8024 19.3106 65.5668 19.2734 65.294 19.199C65.0212 19.1122 64.7051 18.9696 64.3455 18.7712C63.9983 18.5604 63.6078 18.2753 63.1738 17.9157Z" fill="white"/>
<path d="M79.3015 12.4665H76.4188L73.6849 19.3106L75.1355 19.3292L72.3644 12.4665H69.2772L72.9782 20.3334L70.8952 25.1131H73.7221L79.3015 12.4665Z" fill="white"/>
<path d="M85.2433 15.8141V21.0216H88.1632V15.5166C88.1632 14.4875 87.9214 13.6878 87.4378 13.1174C86.9543 12.5471 86.1794 12.2619 85.1131 12.2619C84.4807 12.2619 83.9476 12.3921 83.5136 12.6525C83.0921 12.9128 82.7573 13.2786 82.5094 13.7498V12.4665H79.6825V21.0216H82.5094V15.8141C82.5094 15.4794 82.5714 15.1942 82.6953 14.9586C82.8193 14.7231 82.9929 14.5433 83.2161 14.4193C83.4393 14.2953 83.6996 14.2333 83.9972 14.2333C84.4436 14.2333 84.7597 14.3697 84.9457 14.6425C85.1441 14.9152 85.2433 15.3058 85.2433 15.8141Z" fill="white"/>
<path d="M88.8177 12.4665V14.7912H94.5459V12.4665H88.8177ZM90.3242 9.49082V21.0216H93.0209V9.49082H90.3242Z" fill="white"/>
<path d="M98.0118 6.51514H95.1849V21.0216H98.0118V6.51514ZM100.746 15.8141V21.0216H103.554V15.405C103.554 14.6983 103.455 14.1031 103.256 13.6196C103.058 13.136 102.742 12.7703 102.308 12.5223C101.886 12.2743 101.322 12.1503 100.616 12.1503C99.9088 12.1503 99.3261 12.3177 98.8673 12.6525C98.421 12.9748 98.0862 13.415 97.863 13.9729C97.6398 14.5185 97.5283 15.1322 97.5283 15.8141H98.0118C98.0118 15.4794 98.0738 15.2004 98.1978 14.9772C98.3218 14.7416 98.4954 14.5619 98.7185 14.4379C98.9417 14.3015 99.2021 14.2333 99.4996 14.2333C99.9584 14.2333 100.281 14.3697 100.467 14.6425C100.653 14.9152 100.746 15.3058 100.746 15.8141Z" fill="white"/>
<path d="M109.567 21.2076C110.658 21.2076 111.582 20.9968 112.339 20.5752C113.107 20.1537 113.715 19.5213 114.161 18.6782L111.65 18.0645C111.44 18.4365 111.154 18.7154 110.795 18.9014C110.448 19.0874 110.026 19.1804 109.53 19.1804C109.096 19.1804 108.73 19.0874 108.433 18.9014C108.135 18.703 107.912 18.4179 107.763 18.0459C107.615 17.6739 107.54 17.2276 107.54 16.7068C107.553 16.1365 107.627 15.6654 107.763 15.2934C107.912 14.909 108.129 14.6239 108.414 14.4379C108.7 14.2519 109.053 14.1589 109.474 14.1589C109.809 14.1589 110.101 14.2333 110.349 14.3821C110.597 14.5309 110.789 14.7416 110.925 15.0144C111.061 15.2872 111.13 15.6096 111.13 15.9815C111.13 16.0683 111.105 16.1799 111.055 16.3163C111.018 16.4403 110.968 16.5457 110.906 16.6324L111.576 15.7769H106.294V17.3392H114.105C114.13 17.2524 114.143 17.147 114.143 17.023C114.143 16.8866 114.143 16.7502 114.143 16.6138C114.143 15.6963 113.963 14.9152 113.603 14.2705C113.244 13.6258 112.723 13.136 112.041 12.8013C111.359 12.4541 110.522 12.2805 109.53 12.2805C108.538 12.2805 107.677 12.4603 106.945 12.8199C106.226 13.1794 105.674 13.694 105.29 14.3635C104.906 15.033 104.713 15.8265 104.713 16.744C104.713 17.6491 104.912 18.4365 105.308 19.106C105.705 19.7755 106.263 20.2963 106.982 20.6682C107.714 21.0278 108.576 21.2076 109.567 21.2076Z" fill="white"/>
<path d="M115.784 17.9157L114.612 19.7755C114.996 20.0731 115.412 20.3458 115.858 20.5938C116.304 20.8294 116.788 21.0154 117.309 21.1518C117.842 21.3005 118.418 21.3749 119.038 21.3749C120.055 21.3749 120.842 21.1456 121.4 20.6868C121.971 20.2157 122.256 19.5213 122.256 18.6038C122.256 18.0707 122.138 17.6429 121.902 17.3206C121.679 16.9982 121.375 16.7316 120.991 16.5209C120.619 16.3101 120.21 16.1241 119.764 15.9629C119.342 15.8017 118.982 15.6715 118.685 15.5724C118.4 15.4608 118.177 15.343 118.015 15.219C117.867 15.095 117.792 14.94 117.792 14.754C117.792 14.5929 117.854 14.4627 117.978 14.3635C118.115 14.2643 118.313 14.2147 118.573 14.2147C118.958 14.2147 119.379 14.3263 119.838 14.5495C120.297 14.7602 120.706 15.033 121.065 15.3678L122.07 13.5452C121.735 13.2972 121.375 13.0802 120.991 12.8942C120.619 12.7083 120.216 12.5595 119.782 12.4479C119.361 12.3363 118.902 12.2805 118.406 12.2805C117.786 12.2805 117.234 12.3735 116.751 12.5595C116.28 12.7455 115.901 13.0182 115.616 13.3778C115.343 13.7374 115.207 14.1775 115.207 14.6983C115.207 15.2438 115.325 15.6901 115.56 16.0373C115.796 16.3845 116.094 16.6634 116.453 16.8742C116.825 17.0726 117.216 17.2462 117.625 17.395C118.084 17.5314 118.443 17.6615 118.704 17.7855C118.976 17.9095 119.168 18.0397 119.28 18.1761C119.392 18.3001 119.447 18.4551 119.447 18.641C119.447 18.8394 119.379 19.0006 119.243 19.1246C119.106 19.2486 118.896 19.3106 118.611 19.3106C118.412 19.3106 118.177 19.2734 117.904 19.199C117.631 19.1122 117.315 18.9696 116.955 18.7712C116.608 18.5604 116.218 18.2753 115.784 17.9157Z" fill="white"/>
<path d="M123.075 9.24904C123.075 9.69539 123.236 10.0612 123.559 10.3463C123.881 10.6315 124.265 10.7741 124.712 10.7741C125.17 10.7741 125.555 10.6315 125.865 10.3463C126.187 10.0612 126.348 9.69539 126.348 9.24904C126.348 8.80269 126.187 8.44313 125.865 8.17036C125.555 7.88519 125.17 7.7426 124.712 7.7426C124.265 7.7426 123.881 7.88519 123.559 8.17036C123.236 8.44313 123.075 8.80269 123.075 9.24904ZM123.354 12.4665V21.0216H126.069V12.4665H123.354Z" fill="white"/>
<path d="M128.289 17.9157L127.118 19.7755C127.502 20.0731 127.917 20.3458 128.364 20.5938C128.81 20.8294 129.294 21.0154 129.814 21.1518C130.348 21.3005 130.924 21.3749 131.544 21.3749C132.561 21.3749 133.348 21.1456 133.906 20.6868C134.476 20.2157 134.761 19.5213 134.761 18.6038C134.761 18.0707 134.644 17.6429 134.408 17.3206C134.185 16.9982 133.881 16.7316 133.497 16.5209C133.125 16.3101 132.716 16.1241 132.269 15.9629C131.848 15.8017 131.488 15.6715 131.191 15.5724C130.905 15.4608 130.682 15.343 130.521 15.219C130.372 15.095 130.298 14.94 130.298 14.754C130.298 14.5929 130.36 14.4627 130.484 14.3635C130.62 14.2643 130.819 14.2147 131.079 14.2147C131.463 14.2147 131.885 14.3263 132.344 14.5495C132.802 14.7602 133.212 15.033 133.571 15.3678L134.575 13.5452C134.241 13.2972 133.881 13.0802 133.497 12.8942C133.125 12.7083 132.722 12.5595 132.288 12.4479C131.866 12.3363 131.408 12.2805 130.912 12.2805C130.292 12.2805 129.74 12.3735 129.256 12.5595C128.785 12.7455 128.407 13.0182 128.122 13.3778C127.849 13.7374 127.713 14.1775 127.713 14.6983C127.713 15.2438 127.831 15.6901 128.066 16.0373C128.302 16.3845 128.599 16.6634 128.959 16.8742C129.331 17.0726 129.721 17.2462 130.131 17.395C130.589 17.5314 130.949 17.6615 131.209 17.7855C131.482 17.9095 131.674 18.0397 131.786 18.1761C131.897 18.3001 131.953 18.4551 131.953 18.641C131.953 18.8394 131.885 19.0006 131.749 19.1246C131.612 19.2486 131.401 19.3106 131.116 19.3106C130.918 19.3106 130.682 19.2734 130.41 19.199C130.137 19.1122 129.821 18.9696 129.461 18.7712C129.114 18.5604 128.723 18.2753 128.289 17.9157Z" fill="white"/>
</svg>
