<svg width="105" height="30" viewBox="0 0 105 30" fill="none" xmlns="http://www.w3.org/2000/svg">
<rect y="11.9028" width="5.95135" height="5.95135" fill="white"/>
<rect x="17.8541" y="17.854" width="5.95136" height="5.95135" transform="rotate(180 17.8541 17.854)" fill="white"/>
<path opacity="0.4" d="M5.95142 11.9028L11.9028 5.95142V11.9028L5.95142 17.8541V11.9028Z" fill="white"/>
<path opacity="0.6" d="M11.9027 17.8541L5.95135 23.8054L5.95135 17.8541L11.9027 11.9027L11.9027 17.8541Z" fill="white"/>
<path opacity="0.8" d="M0 11.9027L11.9027 0V5.95135L5.95135 11.9027H0Z" fill="white"/>
<path opacity="0.8" d="M17.854 17.8541L5.95135 29.7568L5.95135 23.8055L11.9027 17.8541L17.854 17.8541Z" fill="white"/>
<path d="M30.8156 21.2516C29.8783 21.2516 28.9699 21.1185 28.0904 20.8523C27.2225 20.5862 26.534 20.2332 26.0248 19.7935L26.8059 18.0403C27.3035 18.4337 27.911 18.7578 28.6285 19.0124C29.3576 19.2554 30.0866 19.3769 30.8156 19.3769C31.7183 19.3769 32.3894 19.2322 32.8292 18.9429C33.2805 18.6536 33.5061 18.2717 33.5061 17.7973C33.5061 17.4501 33.3789 17.1666 33.1243 16.9467C32.8813 16.7153 32.5688 16.5359 32.1869 16.4086C31.8051 16.2813 31.2843 16.1367 30.6247 15.9747C29.6989 15.7548 28.9467 15.5349 28.3681 15.3151C27.8011 15.0952 27.3093 14.7538 26.8927 14.2909C26.4877 13.8165 26.2852 13.18 26.2852 12.3815C26.2852 11.7104 26.4645 11.1028 26.8233 10.5589C27.1936 10.0035 27.7433 9.56374 28.4723 9.23972C29.2129 8.9157 30.1155 8.75369 31.1802 8.75369C31.9208 8.75369 32.6498 8.84627 33.3673 9.03142C34.0848 9.21658 34.7039 9.48274 35.2246 9.8299L34.5129 11.5831C33.9806 11.2706 33.4251 11.0334 32.8465 10.8714C32.2679 10.7094 31.7067 10.6284 31.1628 10.6284C30.2717 10.6284 29.6064 10.7788 29.1666 11.0797C28.7384 11.3806 28.5244 11.7798 28.5244 12.2774C28.5244 12.6246 28.6459 12.9081 28.8889 13.1279C29.1435 13.3478 29.4617 13.5214 29.8436 13.6487C30.2255 13.776 30.7462 13.9206 31.4058 14.0826C32.3084 14.2909 33.049 14.5108 33.6277 14.7422C34.2063 14.9621 34.6981 15.3035 35.1031 15.7664C35.5197 16.2293 35.728 16.8542 35.728 17.6411C35.728 18.3122 35.5428 18.9198 35.1725 19.4637C34.8138 20.0076 34.2641 20.4415 33.5235 20.7655C32.7829 21.0895 31.8803 21.2516 30.8156 21.2516Z" fill="white"/>
<path d="M37.7573 11.8087H39.927V21.078H37.7573V11.8087ZM38.8508 10.2812C38.4574 10.2812 38.1276 10.1597 37.8614 9.91669C37.5953 9.6621 37.4622 9.34966 37.4622 8.97935C37.4622 8.60904 37.5953 8.30238 37.8614 8.05937C38.1276 7.80478 38.4574 7.67749 38.8508 7.67749C39.2443 7.67749 39.5741 7.799 39.8402 8.04201C40.1064 8.27345 40.2395 8.56854 40.2395 8.92728C40.2395 9.30915 40.1064 9.63317 39.8402 9.89933C39.5856 10.1539 39.2558 10.2812 38.8508 10.2812Z" fill="white"/>
<path d="M45.6389 21.1995C44.8867 21.1995 44.1519 21.1011 43.4345 20.9044C42.717 20.7077 42.1442 20.4589 41.716 20.158L42.5492 18.509C42.9658 18.7867 43.4634 19.0124 44.042 19.1859C44.6322 19.3479 45.2108 19.4289 45.7778 19.4289C47.0739 19.4289 47.7219 19.0876 47.7219 18.4048C47.7219 18.0808 47.5541 17.8551 47.2185 17.7278C46.8945 17.6006 46.368 17.479 45.6389 17.3633C44.8752 17.2476 44.2503 17.1145 43.7643 16.9641C43.2898 16.8137 42.8732 16.5533 42.5145 16.183C42.1673 15.8011 41.9937 15.2746 41.9937 14.6034C41.9937 13.7239 42.3582 13.0238 43.0873 12.5031C43.8279 11.9707 44.8231 11.7046 46.0729 11.7046C46.7094 11.7046 47.3458 11.7798 47.9823 11.9302C48.6187 12.0691 49.1395 12.26 49.5445 12.5031L48.7113 14.1521C47.9244 13.6892 47.0392 13.4577 46.0555 13.4577C45.4191 13.4577 44.933 13.5561 44.5974 13.7528C44.2734 13.938 44.1114 14.1868 44.1114 14.4992C44.1114 14.8464 44.285 15.0952 44.6322 15.2456C44.9909 15.3845 45.5406 15.5176 46.2812 15.6449C47.0218 15.7606 47.6293 15.8937 48.1038 16.0441C48.5782 16.1945 48.9833 16.4491 49.3189 16.8079C49.666 17.1666 49.8396 17.6758 49.8396 18.3354C49.8396 19.2033 49.4635 19.8976 48.7113 20.4184C47.9591 20.9391 46.935 21.1995 45.6389 21.1995Z" fill="white"/>
<path d="M60.2177 11.8087L55.8782 21.8244C55.4732 22.8311 54.9814 23.537 54.4028 23.9421C53.8241 24.3587 53.124 24.567 52.3024 24.567C51.8395 24.567 51.3824 24.4917 50.9311 24.3413C50.4798 24.1909 50.1095 23.9826 49.8202 23.7164L50.6881 22.1195C50.8964 22.3162 51.1394 22.4724 51.4172 22.5881C51.7065 22.7038 51.9958 22.7617 52.2851 22.7617C52.6669 22.7617 52.9794 22.6633 53.2224 22.4666C53.477 22.2699 53.7084 21.9401 53.9167 21.4772L54.0729 21.1127L50.0285 11.8087H52.2851L55.2012 18.6652L58.1348 11.8087H60.2177Z" fill="white"/>
<path d="M66.7118 11.7046C67.6145 11.7046 68.4187 11.9013 69.1246 12.2948C69.8421 12.6882 70.4033 13.2437 70.8083 13.9611C71.2134 14.6786 71.4159 15.506 71.4159 16.4433C71.4159 17.3807 71.2134 18.2139 70.8083 18.9429C70.4033 19.6604 69.8421 20.2158 69.1246 20.6093C68.4187 21.0028 67.6145 21.1995 66.7118 21.1995C65.462 21.1995 64.4726 20.7829 63.7436 19.9497V24.4454H61.5738V11.8087H63.6394V13.0238C63.9982 12.5841 64.4379 12.2543 64.9587 12.0344C65.491 11.8145 66.0754 11.7046 66.7118 11.7046ZM66.4688 19.3422C67.2673 19.3422 67.9211 19.076 68.4303 18.5437C68.951 18.0114 69.2114 17.3113 69.2114 16.4433C69.2114 15.5754 68.951 14.8753 68.4303 14.343C67.9211 13.8107 67.2673 13.5445 66.4688 13.5445C65.9481 13.5445 65.4794 13.666 65.0628 13.9091C64.6462 14.1405 64.3164 14.4761 64.0734 14.9158C63.8304 15.3556 63.7089 15.8647 63.7089 16.4433C63.7089 17.022 63.8304 17.5311 64.0734 17.9709C64.3164 18.4106 64.6462 18.752 65.0628 18.995C65.4794 19.2264 65.9481 19.3422 66.4688 19.3422Z" fill="white"/>
<path d="M78.7331 11.7046C79.9019 11.7046 80.8393 12.046 81.5452 12.7287C82.2511 13.4115 82.604 14.424 82.604 15.7664V21.078H80.4342V16.0441C80.4342 15.2341 80.2433 14.6265 79.8614 14.2215C79.4795 13.8049 78.9357 13.5966 78.2298 13.5966C77.4313 13.5966 76.8006 13.8396 76.3377 14.3257C75.8748 14.8001 75.6434 15.4887 75.6434 16.3913V21.078H73.4736V8.19823H75.6434V12.8849C76.0021 12.5031 76.4419 12.2137 76.9626 12.017C77.4949 11.8087 78.0851 11.7046 78.7331 11.7046Z" fill="white"/>
<path d="M94.3306 11.8087V21.078H92.265V19.8976C91.9179 20.3142 91.4839 20.6382 90.9632 20.8697C90.4424 21.0895 89.8812 21.1995 89.2794 21.1995C88.0412 21.1995 87.0634 20.8581 86.3459 20.1753C85.64 19.481 85.2871 18.4569 85.2871 17.103V11.8087H87.4568V16.8079C87.4568 17.6411 87.642 18.266 88.0123 18.6825C88.3942 19.0876 88.9323 19.2901 89.6266 19.2901C90.4019 19.2901 91.0152 19.0529 91.4666 18.5784C91.9294 18.0924 92.1609 17.398 92.1609 16.4954V11.8087H94.3306Z" fill="white"/>
<path d="M100.036 21.1995C99.2834 21.1995 98.5486 21.1011 97.8311 20.9044C97.1137 20.7077 96.5409 20.4589 96.1127 20.158L96.9459 18.509C97.3625 18.7867 97.8601 19.0124 98.4387 19.1859C99.0289 19.3479 99.6075 19.4289 100.174 19.4289C101.471 19.4289 102.119 19.0876 102.119 18.4048C102.119 18.0808 101.951 17.8551 101.615 17.7278C101.291 17.6006 100.765 17.479 100.036 17.3633C99.2719 17.2476 98.647 17.1145 98.1609 16.9641C97.6865 16.8137 97.2699 16.5533 96.9112 16.183C96.564 15.8011 96.3904 15.2746 96.3904 14.6034C96.3904 13.7239 96.755 13.0238 97.484 12.5031C98.2246 11.9707 99.2198 11.7046 100.47 11.7046C101.106 11.7046 101.743 11.7798 102.379 11.9302C103.015 12.0691 103.536 12.26 103.941 12.5031L103.108 14.1521C102.321 13.6892 101.436 13.4577 100.452 13.4577C99.8158 13.4577 99.3297 13.5561 98.9941 13.7528C98.6701 13.938 98.5081 14.1868 98.5081 14.4992C98.5081 14.8464 98.6817 15.0952 99.0289 15.2456C99.3876 15.3845 99.9373 15.5176 100.678 15.6449C101.418 15.7606 102.026 15.8937 102.5 16.0441C102.975 16.1945 103.38 16.4491 103.716 16.8079C104.063 17.1666 104.236 17.6758 104.236 18.3354C104.236 19.2033 103.86 19.8976 103.108 20.4184C102.356 20.9391 101.332 21.1995 100.036 21.1995Z" fill="white"/>
</svg>
