<svg width="126" height="30" viewBox="0 0 126 30" fill="none" xmlns="http://www.w3.org/2000/svg">
<path fill-rule="evenodd" clip-rule="evenodd" d="M0.723389 14.8783C9.39229 14.8783 14.3619 9.90864 14.3619 1.23975C14.3619 9.90864 19.3316 14.8783 28.0005 14.8783C19.3316 14.8783 14.3619 19.8479 14.3619 28.5168C14.3619 19.8479 9.39229 14.8783 0.723389 14.8783Z" fill="white"/>
<path d="M33.3877 21.0213L38.1488 8.00272H40.8269L45.5879 21.0213H43.0586L42.0171 18.0084H36.9399L35.8798 21.0213H33.3877ZM37.5908 16.1486H41.3662L39.4692 10.7366L37.5908 16.1486Z" fill="white"/>
<path d="M50.3627 21.2445C49.4204 21.2445 48.5897 21.0399 47.8706 20.6308C47.1514 20.2216 46.5811 19.6513 46.1595 18.9197C45.7504 18.1882 45.5458 17.3513 45.5458 16.409C45.5458 15.4667 45.7504 14.6298 46.1595 13.8983C46.5811 13.1668 47.1514 12.5964 47.8706 12.1873C48.5897 11.7781 49.4204 11.5735 50.3627 11.5735C51.5406 11.5735 52.5325 11.8835 53.3384 12.5034C54.1443 13.111 54.6588 13.9541 54.882 15.0328H52.3713C52.2473 14.5864 51.9993 14.2392 51.6274 13.9913C51.2678 13.7309 50.84 13.6007 50.3441 13.6007C49.687 13.6007 49.129 13.8487 48.6703 14.3446C48.2115 14.8406 47.9822 15.5287 47.9822 16.409C47.9822 17.2893 48.2115 17.9774 48.6703 18.4734C49.129 18.9693 49.687 19.2173 50.3441 19.2173C50.84 19.2173 51.2678 19.0933 51.6274 18.8453C51.9993 18.5974 52.2473 18.244 52.3713 17.7853H54.882C54.6588 18.8268 54.1443 19.6637 53.3384 20.296C52.5325 20.9283 51.5406 21.2445 50.3627 21.2445Z" fill="white"/>
<path d="M56.065 21.0213V11.7967H58.1666L58.3712 13.0428C58.6687 12.5964 59.0593 12.2431 59.5428 11.9827C60.0388 11.7099 60.6091 11.5735 61.2539 11.5735C62.6797 11.5735 63.6902 12.1253 64.2853 13.2288C64.6201 12.7204 65.0664 12.3175 65.6244 12.0199C66.1947 11.7223 66.8147 11.5735 67.4842 11.5735C68.6869 11.5735 69.6106 11.9331 70.2553 12.6522C70.9 13.3713 71.2224 14.4252 71.2224 15.8139V21.0213H68.8418V16.0371C68.8418 15.2435 68.6869 14.636 68.3769 14.2144C68.0793 13.7929 67.6144 13.5821 66.982 13.5821C66.3373 13.5821 65.8166 13.8177 65.4198 14.2888C65.0354 14.76 64.8433 15.4171 64.8433 16.2602V21.0213H62.4627V16.0371C62.4627 15.2435 62.3077 14.636 61.9978 14.2144C61.6878 13.7929 61.2105 13.5821 60.5657 13.5821C59.9334 13.5821 59.4189 13.8177 59.0221 14.2888C58.6377 14.76 58.4456 15.4171 58.4456 16.2602V21.0213H56.065Z" fill="white"/>
<path d="M77.0347 21.2445C76.1048 21.2445 75.2803 21.0461 74.5612 20.6494C73.842 20.2526 73.2779 19.6947 72.8687 18.9755C72.4596 18.2564 72.255 17.4257 72.255 16.4834C72.255 15.5287 72.4534 14.6794 72.8501 13.9355C73.2593 13.1916 73.8172 12.615 74.524 12.2059C75.2431 11.7843 76.0862 11.5735 77.0533 11.5735C77.9584 11.5735 78.7581 11.7719 79.4524 12.1687C80.1468 12.5654 80.6861 13.111 81.0705 13.8053C81.4672 14.4872 81.6656 15.2497 81.6656 16.0928C81.6656 16.2292 81.6594 16.3718 81.647 16.5206C81.647 16.6694 81.6408 16.8244 81.6284 16.9855H74.6169C74.6665 17.7047 74.9145 18.2688 75.3609 18.678C75.8196 19.0871 76.3714 19.2917 77.0161 19.2917C77.4996 19.2917 77.9026 19.1863 78.225 18.9755C78.5597 18.7524 78.8077 18.4672 78.9689 18.12H81.3866C81.213 18.7028 80.9217 19.2359 80.5125 19.7195C80.1158 20.1906 79.6198 20.5626 79.0247 20.8353C78.4419 21.1081 77.7786 21.2445 77.0347 21.2445ZM77.0533 13.5077C76.4706 13.5077 75.956 13.6751 75.5097 14.0099C75.0633 14.3322 74.7781 14.8282 74.6541 15.4977H79.2479C79.2107 14.8902 78.9875 14.4066 78.5783 14.0471C78.1692 13.6875 77.6608 13.5077 77.0533 13.5077Z" fill="white"/>
<path d="M92.1909 21.2445C90.8766 21.2445 89.7484 20.9655 88.8061 20.4076C87.8638 19.8372 87.1384 19.0499 86.6301 18.0456C86.1217 17.0289 85.8676 15.8573 85.8676 14.5306C85.8676 13.204 86.1217 12.0323 86.6301 11.0156C87.1384 9.9989 87.8638 9.20539 88.8061 8.63505C89.7484 8.06471 90.8766 7.77954 92.1909 7.77954C93.7531 7.77954 95.0302 8.1701 96.0221 8.95121C97.0264 9.71993 97.6525 10.8048 97.9005 12.2059H95.2782C95.117 11.4991 94.7698 10.9474 94.2367 10.5506C93.7159 10.1415 93.0216 9.93691 92.1537 9.93691C90.951 9.93691 90.0087 10.3461 89.3268 11.1644C88.6449 11.9827 88.3039 13.1048 88.3039 14.5306C88.3039 15.9565 88.6449 17.0785 89.3268 17.8969C90.0087 18.7028 90.951 19.1057 92.1537 19.1057C93.0216 19.1057 93.7159 18.9197 94.2367 18.5478C94.7698 18.1634 95.117 17.6365 95.2782 16.967H97.9005C97.6525 18.306 97.0264 19.3537 96.0221 20.11C95.0302 20.8663 93.7531 21.2445 92.1909 21.2445Z" fill="white"/>
<path d="M103.448 21.2445C102.556 21.2445 101.75 21.0399 101.031 20.6308C100.324 20.2216 99.7597 19.6575 99.3382 18.9383C98.929 18.2068 98.7245 17.3637 98.7245 16.409C98.7245 15.4543 98.9352 14.6174 99.3568 13.8983C99.7783 13.1668 100.342 12.5964 101.049 12.1873C101.768 11.7781 102.574 11.5735 103.467 11.5735C104.347 11.5735 105.141 11.7781 105.847 12.1873C106.567 12.5964 107.131 13.1668 107.54 13.8983C107.961 14.6174 108.172 15.4543 108.172 16.409C108.172 17.3637 107.961 18.2068 107.54 18.9383C107.131 19.6575 106.567 20.2216 105.847 20.6308C105.128 21.0399 104.329 21.2445 103.448 21.2445ZM103.448 19.1801C104.068 19.1801 104.608 18.9507 105.066 18.492C105.525 18.0208 105.754 17.3265 105.754 16.409C105.754 15.4915 105.525 14.8034 105.066 14.3446C104.608 13.8735 104.074 13.6379 103.467 13.6379C102.835 13.6379 102.289 13.8735 101.83 14.3446C101.384 14.8034 101.161 15.4915 101.161 16.409C101.161 17.3265 101.384 18.0208 101.83 18.492C102.289 18.9507 102.828 19.1801 103.448 19.1801Z" fill="white"/>
<path d="M109.371 21.0213V11.7967H111.491L111.714 13.5263C112.049 12.9312 112.501 12.46 113.072 12.1129C113.655 11.7533 114.336 11.5735 115.118 11.5735V14.0843H114.448C113.927 14.0843 113.462 14.1649 113.053 14.326C112.644 14.4872 112.322 14.7662 112.086 15.1629C111.863 15.5597 111.751 16.1114 111.751 16.8182V21.0213H109.371Z" fill="white"/>
<path d="M115.815 25.1129V11.7967H117.935L118.195 13.1172C118.493 12.708 118.883 12.3484 119.367 12.0385C119.863 11.7285 120.501 11.5735 121.283 11.5735C122.15 11.5735 122.925 11.7843 123.607 12.2059C124.289 12.6274 124.829 13.204 125.225 13.9355C125.622 14.667 125.82 15.4977 125.82 16.4276C125.82 17.3575 125.622 18.1882 125.225 18.9197C124.829 19.6389 124.289 20.2092 123.607 20.6308C122.925 21.0399 122.15 21.2445 121.283 21.2445C120.588 21.2445 119.981 21.1143 119.46 20.8539C118.939 20.5936 118.518 20.2278 118.195 19.7567V25.1129H115.815ZM120.78 19.1615C121.537 19.1615 122.163 18.9073 122.659 18.399C123.155 17.8907 123.403 17.2335 123.403 16.4276C123.403 15.6217 123.155 14.9584 122.659 14.4376C122.163 13.9169 121.537 13.6565 120.78 13.6565C120.012 13.6565 119.379 13.9169 118.883 14.4376C118.4 14.946 118.158 15.6031 118.158 16.409C118.158 17.2149 118.4 17.8783 118.883 18.399C119.379 18.9073 120.012 19.1615 120.78 19.1615Z" fill="white"/>
</svg>
