<?xml version="1.0" standalone="no"?>
<!DOCTYPE svg PUBLIC "-//W3C//DTD SVG 20010904//EN"
 "http://www.w3.org/TR/2001/REC-SVG-20010904/DTD/svg10.dtd">
<svg version="1.0" xmlns="http://www.w3.org/2000/svg"
 width="4160.000000pt" height="492.000000pt" viewBox="0 0 4160.000000 492.000000"
 preserveAspectRatio="xMidYMid meet">

<g transform="translate(0.000000,492.000000) scale(0.100000,-0.100000)"
fill="#000000" stroke="none">
<path d="M0 2460 l0 -2460 805 0 805 0 0 2460 0 2460 -805 0 -805 0 0 -2460z"/>
<path d="M2452 2598 l3 -2323 1575 0 c1038 0 1578 -3 1582 -10 4 -5 8 -67 8
-137 l0 -128 580 0 580 0 0 2460 0 2460 -2165 0 -2165 0 2 -2322z"/>
<path d="M10690 4820 l0 -100 -1532 -2 -1533 -3 0 -945 0 -945 1348 -3 1347
-2 0 -285 0 -285 -1350 0 -1350 0 2 -987 3 -988 1608 -3 1607 -2 0 -135 0
-135 1440 0 c792 0 1440 3 1440 8 0 4 -54 133 -121 287 -67 154 -154 357 -194
450 -40 94 -146 339 -235 545 -89 206 -209 483 -265 615 -57 132 -122 283
-145 335 -23 52 -87 201 -142 330 -55 129 -109 255 -121 280 -11 25 -32 74
-48 110 -15 36 -45 106 -67 155 -21 50 -107 248 -190 440 -83 193 -182 424
-221 515 -39 91 -76 174 -81 185 -14 30 -239 552 -264 612 l-21 53 -457 0
-458 0 0 -100z"/>
<path d="M12520 4911 c0 -4 34 -89 76 -187 41 -98 116 -276 166 -394 50 -118
111 -262 135 -320 94 -221 190 -448 253 -600 26 -63 89 -212 140 -330 51 -118
107 -253 126 -300 19 -47 41 -98 49 -115 13 -29 141 -332 215 -510 21 -49 84
-198 140 -330 126 -297 190 -449 245 -585 24 -58 60 -143 80 -190 135 -309
335 -800 335 -820 0 -5 7 -15 15 -24 16 -16 45 -12 45 6 0 10 149 380 200 498
16 36 63 148 105 250 87 211 105 254 244 585 56 132 112 265 126 295 27 61
174 406 255 600 71 170 160 380 225 530 52 121 227 534 395 930 45 107 108
256 140 330 32 74 102 239 155 365 53 127 106 250 116 274 10 24 19 45 19 47
0 2 -900 4 -2000 4 -1107 0 -2000 -4 -2000 -9z"/>
<path d="M17370 4893 c-6 -16 -60 -138 -117 -273 -58 -135 -134 -310 -168
-390 -34 -80 -120 -278 -190 -440 -70 -162 -133 -308 -140 -325 -20 -42 -300
-691 -345 -800 -21 -49 -71 -164 -110 -255 -40 -91 -112 -257 -160 -370 -48
-113 -120 -279 -160 -370 -39 -91 -138 -320 -220 -510 -82 -190 -181 -419
-220 -510 -126 -290 -262 -604 -271 -627 l-9 -23 1685 0 1685 0 0 2460 0 2460
-623 0 -624 0 -13 -27z"/>
<path d="M22540 4820 l0 -100 -1532 -2 -1533 -3 -3 -947 -2 -948 1350 0 1350
0 0 -285 0 -285 -1350 0 -1350 0 2 -987 3 -988 1605 -2 1605 -3 3 -135 3 -135
744 0 745 0 0 2460 0 2460 -820 0 -820 0 0 -100z"/>
<path d="M25020 2595 l0 -2325 1580 0 1580 0 0 -135 0 -135 852 0 852 0 -59
37 c-378 233 -634 580 -741 1003 -61 244 -57 101 -61 2073 l-4 1807 -1999 0
-2000 0 0 -2325z"/>
<path d="M29860 3236 c0 -1077 4 -1721 10 -1787 40 -406 235 -743 543 -943
352 -229 864 -333 1457 -297 592 37 944 162 1210 430 177 178 276 396 316 691
11 87 14 410 14 1848 l0 1742 -1775 0 -1775 0 0 -1684z"/>
<path d="M34250 3223 c0 -1089 -4 -1737 -10 -1808 -42 -444 -219 -828 -511
-1110 -124 -119 -183 -164 -385 -292 -15 -9 301 -12 1414 -12 l1432 -1 0 2460
0 2460 -970 0 -970 0 0 -1697z"/>
<path d="M40040 4916 c0 -2 21 -17 48 -34 73 -45 193 -145 256 -213 172 -185
288 -428 331 -694 23 -134 30 -352 16 -479 -44 -397 -178 -691 -433 -946 -324
-324 -813 -523 -1490 -605 -212 -26 -496 -35 -1125 -35 l-603 0 0 -955 0 -955
2280 0 2280 0 0 2460 0 2460 -780 0 c-429 0 -780 -2 -780 -4z"/>
<path d="M37040 3594 l0 -1125 733 4 c601 3 756 7 867 20 474 58 819 214 989
447 96 130 144 243 178 412 23 115 22 382 -1 501 -82 423 -358 670 -882 791
-262 60 -523 76 -1275 76 l-609 0 0 -1126z"/>
</g>
</svg>
